<?xml version="1.0" encoding="UTF-8" standalone="no"?>
<!-- Created with Inkscape (http://www.inkscape.org/) -->

<svg
   version="1.1"
   id="svg1"
   width="1000"
   height="668.30664"
   viewBox="0 0 1000 668.30664"
   sodipodi:docname="main_banner_bg.svg"
   inkscape:version="1.3.2 (091e20e, 2023-11-25)"
   xmlns:inkscape="http://www.inkscape.org/namespaces/inkscape"
   xmlns:sodipodi="http://sodipodi.sourceforge.net/DTD/sodipodi-0.dtd"
   xmlns="http://www.w3.org/2000/svg"
   xmlns:svg="http://www.w3.org/2000/svg">
  <defs
     id="defs1" />
  <sodipodi:namedview
     id="namedview1"
     pagecolor="#ffffff"
     bordercolor="#000000"
     borderopacity="0.25"
     inkscape:showpageshadow="2"
     inkscape:pageopacity="0.0"
     inkscape:pagecheckerboard="0"
     inkscape:deskcolor="#d1d1d1"
     inkscape:zoom="0.74796272"
     inkscape:cx="419.13854"
     inkscape:cy="409.1113"
     inkscape:window-width="1512"
     inkscape:window-height="945"
     inkscape:window-x="0"
     inkscape:window-y="37"
     inkscape:window-maximized="0"
     inkscape:current-layer="group-R5">
    <inkscape:page
       x="0"
       y="0"
       inkscape:label="1"
       id="page1"
       width="1000"
       height="668.30664"
       margin="0"
       bleed="0" />
  </sodipodi:namedview>
  <g
     id="g1"
     inkscape:groupmode="layer"
     inkscape:label="1">
    <g
       id="group-R5">
      <path
         id="path2"
         d="m 0,12.2695 h 7500 v 5000 H 0 Z"
         style="fill:#1f2238;fill-opacity:1;fill-rule:nonzero;stroke:none"
         transform="matrix(0.13333333,0,0,-0.13333333,0,668.30667)" />
      <path
         id="path3"
         d="m 14.379492,-15.879789 -12.9843748,4.710937 v 4.5234379 L 14.379492,-1.9344766 V -6.2586953 L 6.6685547,-8.9071328 14.379492,-11.55557 Z m 0.375,18.4218749 H 19.84043 L 28.242773,-21.422758 H 23.156836 Z M 28.359961,-15.879789 v 4.324219 l 7.710937,2.6484372 -7.710937,2.6484375 v 4.3242187 l 12.984375,-4.7109375 v -4.5234379 z m 0,0"
         style="fill:#262a41;fill-opacity:1;fill-rule:nonzero;stroke:none"
         aria-label="&lt;/&gt;"
         transform="matrix(1.3333333,0,0,1.3333333,416.3,421.16133)" />
      <g
         id="g236"
         style="display:none">
        <path
           id="path4"
           d="m 4660.59,2794.38 c -14.93,-326.65 -336.02,-576.94 -576.54,-592.06 -317.77,-19.97 -544.88,266.61 -576.52,592.06 -27.41,281.95 72.71,277.75 147.29,395.27 90.36,142.4 258.75,221.08 429.23,221.08 318.41,0 596.6,-176.87 576.54,-616.35"
           style="fill:#d82b62;fill-opacity:1;fill-rule:nonzero;stroke:none"
           transform="matrix(0.13333333,0,0,-0.13333333,0,668.30667)" />
        <path
           id="path5"
           d="m 553.35799,371.32987 v 74.592 h -59.58134 v -74.592 h 59.58134"
           style="fill:#f3a29c;fill-opacity:1;fill-rule:nonzero;stroke:none;stroke-width:0.133333" />
        <path
           id="path6"
           d="m 590.49399,327.82321 c 10.62666,-16.128 24.14933,-16.836 29.79599,2.23867 5.64667,19.07599 -12.99066,34.77066 -28.16399,28.97866 -15.17467,-5.792 -1.632,-31.21733 -1.632,-31.21733"
           style="fill:#f3a29c;fill-opacity:1;fill-rule:nonzero;stroke:none;stroke-width:0.133333" />
        <path
           id="path7"
           d="m 603.03932,328.24454 c 7.11867,-1.30266 10.76667,19.908 -4.84533,20.608 l 3.21066,-7.40133 -3.01333,-6.156 4.648,-7.05067"
           style="fill:#ef7691;fill-opacity:1;fill-rule:nonzero;stroke:none;stroke-width:0.133333" />
        <path
           id="path8"
           d="m 596.10199,351.98987 c 3.76933,-4.01466 4.91733,-7.58533 4.91466,-10.40133 -0.004,-4.068 -2.35733,-6.49466 -2.38533,-6.52533 l -0.24,0.232 0.3,0.14667 c 10e-4,-0.003 0.27867,-0.572 0.75867,-1.436 0.72,-1.29467 1.892,-3.24 3.22533,-4.84534 1.328,-1.61466 2.84,-2.83866 4.064,-2.81733 0.62267,0.004 1.216,0.272 1.82,1.02667 0.59867,0.75466 1.16933,1.99866 1.64267,3.85733 l 0.64533,-0.164 c -0.488,-1.91333 -1.07867,-3.236 -1.76533,-4.10667 -0.68267,-0.87066 -1.50267,-1.284 -2.34267,-1.28 -1.096,0.005 -2.148,0.644 -3.14,1.53734 -2.96133,2.68933 -5.49467,7.91866 -5.50667,7.93466 l -0.10266,0.21067 0.16266,0.168 0.0853,0.096 c 0.412,0.472 2.11466,2.64266 2.112,5.96533 -0.001,2.632 -1.05334,6.01867 -4.73334,9.94533 l 0.48534,0.456"
           style="fill:#de677e;fill-opacity:1;fill-rule:nonzero;stroke:none;stroke-width:0.133333" />
        <path
           id="path9"
           d="m 456.14332,327.82321 c -10.62933,-16.128 -24.15066,-16.836 -29.79733,2.23867 -5.64667,19.07599 12.98933,34.77066 28.164,28.97866 15.17333,-5.792 1.63333,-31.21733 1.63333,-31.21733"
           style="fill:#f3a29c;fill-opacity:1;fill-rule:nonzero;stroke:none;stroke-width:0.133333" />
        <path
           id="path10"
           d="m 443.59666,328.24454 c -7.11867,-1.30266 -10.76667,19.908 4.84533,20.608 l -3.21067,-7.40133 3.01334,-6.156 -4.648,-7.05067"
           style="fill:#ef7691;fill-opacity:1;fill-rule:nonzero;stroke:none;stroke-width:0.133333" />
        <path
           id="path11"
           d="m 451.02066,351.53254 c -3.68134,-3.92533 -4.73334,-7.312 -4.73467,-9.944 0,-1.90133 0.55333,-3.42 1.10667,-4.46533 0.27733,-0.52267 0.55333,-0.92534 0.75866,-1.196 0.10267,-0.13467 0.188,-0.23733 0.24667,-0.304 l 0.0853,-0.096 0.16267,-0.168 -0.10267,-0.21067 c -0.004,-0.008 -1.14,-2.34 -2.76666,-4.68533 -0.81334,-1.17467 -1.74934,-2.352 -2.74,-3.24933 -0.992,-0.89334 -2.04534,-1.532 -3.14,-1.53734 -0.84,-0.004 -1.66,0.40934 -2.34267,1.28 -0.688,0.87067 -1.27733,2.19334 -1.76667,4.10667 l 0.64667,0.164 c 0.47333,-1.85867 1.044,-3.10267 1.64267,-3.85733 0.604,-0.75467 1.196,-1.02267 1.82,-1.02667 0.81466,-0.005 1.76,0.51733 2.692,1.364 1.4,1.26533 2.74933,3.20533 3.73733,4.824 0.49467,0.80933 0.9,1.53867 1.18133,2.064 0.28134,0.52667 0.436,0.84533 0.43734,0.84667 l 0.3,-0.14667 -0.24,-0.232 c -0.028,0.0307 -2.38134,2.456 -2.38534,6.52533 -0.003,2.816 1.14534,6.38667 4.91467,10.40133 l 0.48667,-0.456"
           style="fill:#de677e;fill-opacity:1;fill-rule:nonzero;stroke:none;stroke-width:0.133333" />
        <path
           id="path12"
           d="m 553.35799,372.98054 v 27.748 c -21.412,29.01333 -59.58134,19.58 -59.58134,19.58 l 0.66667,-47.328 h 58.91467"
           style="fill:#de677e;fill-opacity:1;fill-rule:nonzero;stroke:none;stroke-width:0.133333" />
        <path
           id="path13"
           d="m 523.56599,404.77387 v 0 c -35.568,0 -64.4,-28.832 -64.4,-64.39866 v -47.06133 c 0,-24.02267 19.47333,-43.49734 43.49733,-43.49734 h 41.80533 c 24.024,0 43.49734,19.47467 43.49734,43.49734 v 47.06133 c 0,35.56666 -28.832,64.39866 -64.4,64.39866"
           style="fill:#f3a29c;fill-opacity:1;fill-rule:nonzero;stroke:none;stroke-width:0.133333" />
        <path
           id="path14"
           d="m 532.80865,348.79387 c 0,2.55467 -1.03333,4.86 -2.70666,6.53467 -1.67467,1.67333 -3.98134,2.70533 -6.536,2.70667 -2.55334,-0.001 -4.86,-1.03334 -6.53334,-2.70667 -1.67333,-1.67467 -2.70666,-3.98 -2.70666,-6.53467 h -1.33334 c 0,5.84134 4.73334,10.57334 10.57334,10.57467 5.84133,-10e-4 10.576,-4.73333 10.576,-10.57467 h -1.33334"
           style="fill:#d82b62;fill-opacity:1;fill-rule:nonzero;stroke:none;stroke-width:0.133333" />
        <path
           id="path15"
           d="m 465.96999,252.69654 c 0,0 -11.28,-18.69733 2.848,-35.18266 0,0 10.15067,18.79466 -2.848,35.18266"
           style="fill:#d82b62;fill-opacity:1;fill-rule:nonzero;stroke:none;stroke-width:0.133333" />
        <path
           id="path16"
           d="m 471.69932,248.25654 c 0,0 -15.70666,15.16934 -34.93066,5.07734 0,0 16.056,-14.08934 34.93066,-5.07734"
           style="fill:#d82b62;fill-opacity:1;fill-rule:nonzero;stroke:none;stroke-width:0.133333" />
        <path
           id="path17"
           d="m 497.99265,325.67788 c 0,5.32533 -2.26933,9.64133 -5.06533,9.64133 -2.79867,0 -5.06667,-4.316 -5.06667,-9.64133 0,-5.32534 2.268,-9.64134 5.06667,-9.64134 2.796,0 5.06533,4.316 5.06533,9.64134"
           style="fill:#2a2e4b;fill-opacity:1;fill-rule:nonzero;stroke:none;stroke-width:0.133333" />
        <path
           id="path18"
           d="m 516.20465,324.96054 h -2.66666 c -0.001,6.424 -2.596,12.21467 -6.804,16.428 -4.212,4.208 -10.00267,6.80267 -16.42667,6.804 -6.424,-0.001 -12.21466,-2.596 -16.42666,-6.804 -4.208,-4.21333 -6.80267,-10.004 -6.804,-16.428 10e-4,-6.42266 2.596,-12.21333 6.804,-16.42666 4.212,-4.208 10.00266,-6.80267 16.42666,-6.804 6.424,0.001 12.21467,2.596 16.42667,6.804 4.208,4.21333 6.80266,10.004 6.804,16.42666 h 2.66666 2.66667 c -10e-4,-15.776 -12.78667,-28.56266 -28.564,-28.564 -15.77733,10e-4 -28.56266,12.788 -28.564,28.564 0.001,15.77733 12.78667,28.56267 28.564,28.56533 15.77733,-10e-4 28.56267,-12.788 28.564,-28.56533 h -2.66667"
           style="fill:#ffffff;fill-opacity:1;fill-rule:nonzero;stroke:none;stroke-width:0.133333" />
        <path
           id="path19"
           d="m 559.27265,325.67788 c 0,5.32533 -2.26933,9.64133 -5.06666,9.64133 -2.79867,0 -5.06534,-4.316 -5.06534,-9.64133 0,-5.32534 2.26667,-9.64134 5.06534,-9.64134 2.79733,0 5.06666,4.316 5.06666,9.64134"
           style="fill:#2a2e4b;fill-opacity:1;fill-rule:nonzero;stroke:none;stroke-width:0.133333" />
        <path
           id="path20"
           d="m 582.72199,324.96054 h -2.66667 c -0.001,6.424 -2.596,12.21467 -6.804,16.428 -4.212,4.208 -10.004,6.80267 -16.42667,6.804 -6.424,-0.001 -12.21466,-2.596 -16.42666,-6.804 -4.208,-4.21333 -6.80267,-10.004 -6.804,-16.428 0.001,-6.42266 2.596,-12.21333 6.804,-16.42666 4.212,-4.208 10.00266,-6.80267 16.42666,-6.804 6.42267,0.001 12.21467,2.596 16.42667,6.804 4.208,4.21333 6.80267,10.004 6.804,16.42666 h 2.66667 2.66666 c -10e-4,-15.776 -12.788,-28.56266 -28.564,-28.564 -15.776,10e-4 -28.56266,12.788 -28.564,28.564 10e-4,15.77733 12.788,28.56267 28.564,28.56533 15.776,-0.003 28.56267,-12.788 28.564,-28.56533 h -2.66666"
           style="fill:#ffffff;fill-opacity:1;fill-rule:nonzero;stroke:none;stroke-width:0.133333" />
        <path
           id="path21"
           d="m 467.14732,268.19654 c 0,0 40.91333,-21.568 68.09867,-5.936 27.18666,15.632 30.24533,47.91467 57.08933,39.56 0,0 20.38933,-8.976 -2.03867,-40.24 -22.42666,-31.26266 -37.772,-37.38 -66.96933,-30.584 -29.2,6.796 -48.19733,12.08134 -56.18,37.2"
           style="fill:#d82b62;fill-opacity:1;fill-rule:nonzero;stroke:none;stroke-width:0.133333" />
        <path
           id="path22"
           d="m 465.58332,267.88588 c 0,0 13.50534,-17.90667 32.40933,-22.64134 18.90267,-4.732 39.81334,18.52 39.81334,18.52 0,0 -48.43467,-6.90533 -72.22267,4.12134"
           style="fill:#af2153;fill-opacity:1;fill-rule:nonzero;stroke:none;stroke-width:0.133333" />
        <path
           id="path23"
           d="m 459.26466,290.40988 c 0,0 4.556,33.23333 0,53.51599 0,0 -6.65867,-51.53333 0,-53.51599"
           style="fill:#d82b62;fill-opacity:1;fill-rule:nonzero;stroke:none;stroke-width:0.133333" />
        <path
           id="path24"
           d="m 587.49799,290.40988 c 0,0 -4.55467,33.23333 0,53.51599 0,0 6.66,-51.53333 0,-53.51599"
           style="fill:#d82b62;fill-opacity:1;fill-rule:nonzero;stroke:none;stroke-width:0.133333" />
        <path
           id="path25"
           d="m 504.47132,287.81654 c -7.028,-3.364 -19.52666,-7.056 -31.10533,1.192 -1.94267,1.38267 -1.204,4.43734 1.14533,4.84267 3.71467,0.64 9.044,1.30267 15.07733,1.26533 4.68934,-0.0307 10.24,-1.184 14.384,-2.25066 2.436,-0.62667 2.768,-3.964 0.49867,-5.04934"
           style="fill:#d82b62;fill-opacity:1;fill-rule:nonzero;stroke:none;stroke-width:0.133333" />
        <path
           id="path26"
           d="m 572.33132,287.81654 c -7.02667,-3.364 -19.52533,-7.056 -31.10533,1.192 -1.94134,1.38267 -1.20267,4.43734 1.14666,4.84267 3.71467,0.64 9.04534,1.30267 15.07734,1.26533 4.68933,-0.0307 10.23866,-1.184 14.38266,-2.25066 2.43734,-0.62667 2.76934,-3.964 0.49867,-5.04934"
           style="fill:#d82b62;fill-opacity:1;fill-rule:nonzero;stroke:none;stroke-width:0.133333" />
        <path
           id="path27"
           d="m 545.34999,372.05387 c -0.668,1.192 -1.45734,2.43867 -2.53734,3.68 -3.44266,4.144 -9.28933,8.12534 -19.304,8.308 l -0.0147,0.0453 -0.736,-0.0147 -0.028,-0.06 c -9.39067,-0.18533 -15.176,-3.71867 -18.66667,-7.61867 -1.35067,-1.464 -2.37733,-3.01333 -3.11467,-4.40666 -1.668,-3.20267 -2.10266,-5.72134 -2.10266,-5.72134 l 48.628,0.092 c 0,0 -0.40134,2.51734 -2.124,5.696"
           style="fill:#e72b61;fill-opacity:1;fill-rule:nonzero;stroke:none;stroke-width:0.133333" />
        <path
           id="path28"
           d="m 545.34999,372.05387 c -0.668,1.192 -1.45734,2.43867 -2.53734,3.68 -11.16133,-4.904 -24.588,-5.93066 -38.74933,0.66 -1.35067,-1.464 -2.37733,-3.01333 -3.11467,-4.40666 -1.668,-3.20267 -2.10266,-5.72134 -2.10266,-5.72134 l 48.628,0.092 c 0,0 -0.40134,2.51734 -2.124,5.696"
           style="fill:#2a2e4b;fill-opacity:1;fill-rule:nonzero;stroke:none;stroke-width:0.133333" />
        <path
           id="path29"
           d="m 730.26732,631.19907 -435.94666,0.45213 c 0,0 8.13333,-17.012 19.84,-39.55893 0.86667,-1.66667 1.75867,-3.3744 2.66667,-5.10773 15.98666,-30.4932 37.49333,-69.012 54.27999,-89.90534 19.33334,-24.05333 65.01334,-41.20133 96.04,-50.57466 18.07867,-5.45333 31.17333,-8.26533 31.17333,-8.26533 h 50.07867 c 0,0 11.76,2.52 28.37333,7.43866 31,9.16 77.34667,27.96133 98.84,51.40133 4.72,5.14534 9.16,11.372 13.32133,18.28 26.452,43.95867 41.33334,115.83987 41.33334,115.83987"
           style="fill:#f78f45;fill-opacity:1;fill-rule:nonzero;stroke:none;stroke-width:0.133333" />
        <path
           id="path30"
           d="m 294.32066,631.6512 c 0,0 0.0533,-0.112 0.15867,-0.33173 h 107.93599 v 0.21973 l -108.09466,0.112 m 112.09466,-0.11613 v -0.2156 h 140.59733 c 0.28934,0 0.57867,-0.008 0.86134,-0.0308 0.084,-0.006 0.168,-0.0135 0.25066,-0.0213 7.63334,-0.6964 6.82934,-12.2308 -0.828,-12.2308 h -82.95199 c 0,-0.004 -0.003,-0.0119 -0.007,-0.0255 -0.0107,-0.0344 -0.032,-0.10787 -0.064,-0.21454 l -2.36667,-6.68133 c 122.94533,-4.94947 191.17466,-68.1744 210.604,-89.24266 4.224,-4.58134 10.08933,-7.33867 16.31733,-7.51067 l 0.10533,-0.003 c 26.452,43.95867 41.33334,115.83987 41.33334,115.83987 l -323.852,0.336"
           style="fill:#f57c2f;fill-opacity:1;fill-rule:nonzero;stroke:none;stroke-width:0.133333" />
        <path
           id="path31"
           d="m 516.72599,332.03121 h 13.67866 v -5.33333 h -13.67866 z"
           style="fill:#ffffff;fill-opacity:1;fill-rule:nonzero;stroke:none;stroke-width:0.133333" />
        <path
           id="path32"
           d="m 576.77399,445.67254 c -53.96534,59.37333 -109.62667,0.83867 -109.62667,0.83867 18.08134,-5.46534 31.17867,-8.27867 31.17867,-8.27867 h 50.07733 c 0,0 11.76,2.52933 28.37067,7.44"
           style="fill:#f3a29c;fill-opacity:1;fill-rule:nonzero;stroke:none;stroke-width:0.133333" />
        <path
           id="path33"
           d="m 402.41532,631.7324 h 4 V 564.022 h -4 z"
           style="fill:#f57819;fill-opacity:1;fill-rule:nonzero;stroke:none;stroke-width:0.133333" />
        <path
           id="path34"
           d="m 405.98866,605.94333 -18.18134,-23.18013 -3.14666,2.46814 18.18133,23.18133 3.14667,-2.46934"
           style="fill:#f57819;fill-opacity:1;fill-rule:nonzero;stroke:none;stroke-width:0.133333" />
        <path
           id="path35"
           d="m 639.48465,631.7324 h 4 V 564.022 h -4 z"
           style="fill:#f57819;fill-opacity:1;fill-rule:nonzero;stroke:none;stroke-width:0.133333" />
        <path
           id="path36"
           d="m 643.05798,608.41267 16.14267,-20.5828 -3.14667,-2.46827 -16.144,20.58173"
           style="fill:#f57819;fill-opacity:1;fill-rule:nonzero;stroke:none;stroke-width:0.133333" />
        <path
           id="path37"
           d="m 463.43532,473.9312 c 0.0733,0.0493 7.368,5.02667 18.804,10.01467 11.436,4.984 27.01867,9.996 43.724,10.00133 8.756,0 17.82267,-1.38666 26.708,-4.904 8.88533,-3.51466 17.576,-9.16533 25.556,-17.608 l -2.90667,-2.74799 c -7.60133,8.03599 -15.76933,13.32933 -24.12133,16.63733 -8.352,3.30533 -16.89867,4.62133 -25.236,4.62266 -15.896,0.005 -31.012,-4.81733 -42.12533,-9.668 -5.55733,-2.42266 -10.112,-4.848 -13.26933,-6.66133 -1.57734,-0.90667 -2.80667,-1.66 -3.636,-2.184 -0.41467,-0.26267 -0.72934,-0.46667 -0.93867,-0.604 l -0.232,-0.15467 -0.0707,-0.0467 -2.256,3.30266"
           style="fill:#f57819;fill-opacity:1;fill-rule:nonzero;stroke:none;stroke-width:0.133333" />
        <path
           id="path38"
           d="m 616.29944,566.24425 -12.3125,-16.28125 11.82812,-15.5625 h -9.8125 l -6.9375,9.29688 -6.73437,-9.29688 h -10.35938 l 11.82813,15.79688 -12.25,16.04687 h 10.0625 l 7.21875,-9.76562 6.98437,9.76562 z m 0,0"
           style="fill:#ffffff;fill-opacity:1;fill-rule:nonzero;stroke:none;stroke-width:1.33333"
           aria-label="x" />
        <path
           id="path39"
           d="m 465.59532,240.19254 c 15.024,-63.14533 165.54,-56.19733 137.532,66.74534 -8.39067,36.82666 -69.73467,-83.71334 -122.67733,-54.14134 -3.95733,2.21067 -8.88933,1.63867 -12.19867,-1.46 -3.03866,-2.84666 -3.62,-7.09333 -2.656,-11.144"
           style="fill:#d82b62;fill-opacity:1;fill-rule:nonzero;stroke:none;stroke-width:0.133333" />
        <path
           id="path40"
           d="m 548.26732,631.2392 -0.148,0.0265 c -0.35867,0.0401 -0.732,0.0537 -1.10667,0.0537 H 255.02599 c -3.87866,0 -7.332,-1.8 -9.58533,-4.6272 -1.68,-2.09427 -2.68,-4.76094 -2.68,-7.65307 l -0.0413,-0.13333 -45.46667,-128.468 c -3.48,-9.81333 3.80134,-20.12 14.21467,-20.12 h 189.57333 c 6.4,0 12.092,4.02667 14.22666,10.05333 l 49,138.42787 c 0.0533,0.15893 0.08,0.24013 0.08,0.24013 h 82.94533 c 7.61334,0 8.45467,11.3864 0.97467,12.2"
           style="fill:#67aebb;fill-opacity:1;fill-rule:nonzero;stroke:none;stroke-width:0.133333" />
        <path
           id="path41"
           d="m 330.51399,547.87254 c 4.79334,13.94013 -0.62666,28.44013 -12.108,32.388 -11.48,3.948 -24.67333,-4.152 -29.46666,-18.09067 -4.79467,-13.94 0.62666,-28.44 12.108,-32.388 11.48,-3.948 24.67333,4.15067 29.46666,18.09067"
           style="fill:#ffffff;fill-opacity:1;fill-rule:nonzero;stroke:none;stroke-width:0.133333" />
        <path
           id="path42"
           d="m 547.29665,619.03653 h -82.95199 c 0,0 -0.0227,-0.0837 -0.0707,-0.24 l -49.008,-138.42799 c -2.136,-6.02534 -7.82533,-10.04667 -14.22267,-10.04667 h -6.33866 c 0,0 14.164,0.92533 17.70533,13.6 3.54,12.66267 51.93467,147.12933 51.93467,147.12933 l 3.57733,0.264 h 79.08533 c 0.384,0 0.75733,-0.012 1.11733,-0.0479 7.63334,-0.6964 6.82934,-12.2308 -0.828,-12.2308"
           style="fill:#3b719a;fill-opacity:1;fill-rule:nonzero;stroke:none;stroke-width:0.133333" />
        <path
           id="path43"
           d="M 547.01265,631.31947 H 255.02599 c -3.87866,0 -7.332,-1.8 -9.58533,-4.6272 7.16267,0.6152 14,0.91093 20.524,0.91093 141.72933,0 136.34266,-139.152 135.20266,-155.68666 4.228,1.68 9.312,5.09733 11.24267,12.00533 3.54,12.66267 51.93467,147.12933 51.93467,147.12933 l 3.57733,0.264 h 79.08533 c 0.296,0 0.58533,-0.007 0.86667,-0.0265 -0.28267,0.0224 -0.572,0.0308 -0.86134,0.0308 m -82.66799,-12.28294 v 0 c 0,0 -10e-4,-0.009 -0.007,-0.0255 0.004,0.0136 0.007,0.0213 0.008,0.0255 m -49.9,-140.56266 c -10e-4,-0.003 -0.003,-0.004 -0.004,-0.007 10e-4,0.003 0.003,0.004 0.004,0.007 m -0.009,-0.016 c -2.56534,-4.94933 -7.7,-8.136 -13.39334,-8.136 h -0.003 c 0,-0.003 0,-0.004 0,-0.004 5.69466,0 10.83066,3.18933 13.396,8.14"
           style="fill:#58a5b0;fill-opacity:1;fill-rule:nonzero;stroke:none;stroke-width:0.133333" />
        <path
           id="path44"
           d="m 547.00732,631.3152 h -79.08533 l -3.57733,-0.264 c 0,0 -48.39467,-134.46666 -51.93467,-147.12933 -1.93067,-6.908 -7.01467,-10.32533 -11.24267,-12.00533 -0.068,-0.99334 -0.12133,-1.54267 -0.12666,-1.59467 h 0.003 c 5.69334,0 10.828,3.18667 13.39334,8.136 0.003,0.003 0.004,0.007 0.005,0.009 10e-4,0.003 0.003,0.004 0.004,0.007 0.31333,0.60667 0.588,1.24 0.82133,1.89733 l 49,138.42787 c 0.0347,0.1052 0.0587,0.1776 0.0707,0.212 0.005,0.0161 0.007,0.0255 0.007,0.0255 v 0 c 0.003,10e-4 0.003,0.003 0.003,0.003 h 81.64 c 0.88,4.04013 1.65333,8.1068 2.28,12.2 l -0.148,0.0265 c -0.0813,0.008 -0.16267,0.0161 -0.24533,0.0229 v 0 c -0.28134,0.0199 -0.57067,0.0265 -0.86667,0.0265"
           style="fill:#3d809b;fill-opacity:1;fill-rule:nonzero;stroke:none;stroke-width:0.133333" />
        <path
           id="path45"
           d="M 201.07,546.51107 V 550.81 c -7.768,0.888 -9.668,7.45574 -9.668,15.4532 v 2.64267 c 0,7.99587 1.9,14.56507 9.668,15.45467 v 4.276 H 52.549999 c -6.094266,0 -11.031866,-4.93747 -11.031866,-11.03334 v -20.03853 c 0,-6.0948 4.9376,-11.0536 11.031866,-11.0536 H 201.07"
           style="fill:#3b719a;fill-opacity:1;fill-rule:nonzero;stroke:none;stroke-width:0.133333" />
        <path
           id="path46"
           d="m 198.75533,579.95894 c 0.88933,2.1068 -0.74267,4.4016 -3.016,4.4016 L 53.810399,584.4632 V 550.70587 L 195.73933,550.81 c 0.82667,0 1.57067,0.30787 2.128,0.80374 0.992,0.82706 1.44667,2.2536 0.888,3.5948 -1.17733,2.81093 -1.136,6.71613 -1.136,11.05466 v 2.64267 c 0,4.33853 -0.0413,8.24373 1.136,11.05307"
           style="fill:#ffffff;fill-opacity:1;fill-rule:nonzero;stroke:none;stroke-width:0.133333" />
        <path
           id="path47"
           d="m 61.123332,570.43507 v -19.724 L 171.03,550.79134 c -0.0693,0.21293 1.07733,1.0916 2.81333,2.2932 -16.29733,1.112 -38.49733,2.8468 -58.92,5.1828 H 61.365066 v 3.04373 h 30.706266 c -7.412,1.16667 -13.996933,2.43747 -19.195867,3.80933 H 61.365066 v 3.0412 h 2.788 c -1.447334,0.73494 -2.478667,1.49374 -3.029734,2.27347"
           style="fill:#caedef;fill-opacity:1;fill-rule:nonzero;stroke:none;stroke-width:0.133333" />
        <path
           id="path48"
           d="M 61.123332,588.6444 H 48.643733 c -3.934934,0 -7.125067,-3.19066 -7.125067,-7.12493 v -27.8724 c 0,-3.936 3.190133,-7.12507 7.125067,-7.12507 h 12.479599 v 42.1224"
           style="fill:#3b719a;fill-opacity:1;fill-rule:nonzero;stroke:none;stroke-width:0.133333" />
        <path
           id="path49"
           d="m 199.002,581.17254 c 10e-4,-0.376 -0.0667,-0.75987 -0.216,-1.13854 0.14933,0.37867 0.21733,0.76254 0.216,1.13854"
           style="fill:#4a697f;fill-opacity:1;fill-rule:nonzero;stroke:none;stroke-width:0.133333" />
        <path
           id="path50"
           d="m 167.406,584.37934 c 8.21733,-0.93494 13.248,-3.99227 16.32266,-7.5 h 13.89067 v -3.0428 H 185.894 c 1.136,-1.99054 1.78666,-3.976 2.15733,-5.67494 h 9.568 v 0.74427 c 0,0.288 0,0.57453 0,0.8588 0,3.99333 0.0373,7.57187 1.136,10.19427 0.0107,0.0256 0.0213,0.0496 0.0307,0.0751 0.14933,0.37867 0.21733,0.76254 0.216,1.13854 -0.005,1.6864 -1.42534,3.1864 -3.26267,3.1864 l -28.33333,0.0204"
           style="fill:#caedef;fill-opacity:1;fill-rule:nonzero;stroke:none;stroke-width:0.133333" />
        <path
           id="path51"
           d="m 197.61933,565.1204 h -9.13467 c 0.0747,-1.11453 0.0227,-1.7932 0.0227,-1.7932 0.0587,-0.20773 -0.89333,-0.96666 -2.37867,-2.01613 h 11.49067 v -3.04373 h -15.992 c -2.71467,-1.7948 -5.68267,-3.72707 -7.784,-5.1828 13.75067,-0.93747 23.29333,-1.43174 24.024,-1.4708 v 0 c 0.69733,0.5812 1.12933,1.4588 1.13067,2.39626 0,0.39427 -0.076,0.80107 -0.24267,1.19854 -0.064,0.15466 -0.12533,0.31093 -0.18267,0.4708 -0.89733,2.50933 -0.95066,5.7948 -0.95333,9.44106"
           style="fill:#caedef;fill-opacity:1;fill-rule:nonzero;stroke:none;stroke-width:0.133333" />
        <path
           id="path52"
           d="M 195.73933,550.81 171.03,550.79134 c 0,-0.002 0.001,-0.002 0.001,-0.003 l 24.708,0.0213"
           style="fill:#5799b5;fill-opacity:1;fill-rule:nonzero;stroke:none;stroke-width:0.133333" />
        <path
           id="path53"
           d="m 173.84333,553.08454 c -1.736,-1.2016 -2.88267,-2.08027 -2.81333,-2.2932 l 24.70933,0.0187 c 0.82667,0 1.57067,0.30787 2.128,0.80374 -0.73067,0.0391 -10.27333,0.53333 -24.024,1.4708"
           style="fill:#aee4e9;fill-opacity:1;fill-rule:nonzero;stroke:none;stroke-width:0.133333" />
        <path
           id="path54"
           d="m 197.61933,568.1616 v 0 -1.9 c 0,-0.28746 0,-0.57453 0,-0.8584 0,-0.0947 0,-0.188 0,-0.2828 v 0 3.0412"
           style="fill:#4a697f;fill-opacity:1;fill-rule:nonzero;stroke:none;stroke-width:0.133333" />
        <path
           id="path55"
           d="M 188.05133,568.1616 H 64.153066 c 2.096933,-1.06253 5.068799,-2.07706 8.722399,-3.0412 H 188.48466 c -0.0547,0.8136 -0.176,1.85894 -0.43333,3.0412 m 9.568,-2.7584 c 0,-0.0947 0,-0.188 0,-0.2828 v 0 c 0,0.0948 0,0.18814 0,0.2828"
           style="fill:#caedef;fill-opacity:1;fill-rule:nonzero;stroke:none;stroke-width:0.133333" />
        <path
           id="path56"
           d="m 64.153066,568.1616 h -2.788 v -3.0412 h 11.510399 c -3.6536,0.96414 -6.625466,1.97867 -8.722399,3.0412"
           style="fill:#aee4e9;fill-opacity:1;fill-rule:nonzero;stroke:none;stroke-width:0.133333" />
        <path
           id="path57"
           d="m 197.61933,568.1616 v 0 -1.8984 c 0,-0.28906 0,-0.57453 0,-0.86 0,0.28387 0,0.57094 0,0.8584 v 1.9"
           style="fill:#6295a6;fill-opacity:1;fill-rule:nonzero;stroke:none;stroke-width:0.133333" />
        <path
           id="path58"
           d="m 197.61933,568.1616 h -9.568 c 0.25733,-1.18226 0.37867,-2.2276 0.43333,-3.0412 h 9.13467 c 0,0.0948 0,0.18814 0,0.2828 0,0.28547 0,0.57094 0,0.86 v 1.8984"
           style="fill:#aee4e9;fill-opacity:1;fill-rule:nonzero;stroke:none;stroke-width:0.133333" />
        <path
           id="path59"
           d="M 186.12866,561.31107 H 92.071332 c 7.028133,-1.10787 14.801598,-2.1224 22.851998,-3.04373 h 66.704 c 1.68667,1.1156 3.27467,2.17866 4.50133,3.04373"
           style="fill:#caedef;fill-opacity:1;fill-rule:nonzero;stroke:none;stroke-width:0.133333" />
        <path
           id="path60"
           d="M 92.071332,561.31107 H 61.365066 v -3.04373 h 53.558264 c -8.0504,0.92133 -15.823865,1.93586 -22.851998,3.04373"
           style="fill:#aee4e9;fill-opacity:1;fill-rule:nonzero;stroke:none;stroke-width:0.133333" />
        <path
           id="path61"
           d="m 197.61933,561.31107 h -11.49067 c -1.22666,-0.86507 -2.81466,-1.92813 -4.50133,-3.04373 h 15.992 v 3.04373"
           style="fill:#aee4e9;fill-opacity:1;fill-rule:nonzero;stroke:none;stroke-width:0.133333" />
        <path
           id="path62"
           d="M 183.72866,576.87934 H 61.365066 v -3.0428 H 185.894 c -0.584,1.02506 -1.296,2.05213 -2.16534,3.0428"
           style="fill:#caedef;fill-opacity:1;fill-rule:nonzero;stroke:none;stroke-width:0.133333" />
        <path
           id="path63"
           d="m 197.61933,576.87934 h -13.89067 c 0.86934,-0.99067 1.58134,-2.01774 2.16534,-3.0428 h 11.72533 v 3.0428"
           style="fill:#aee4e9;fill-opacity:1;fill-rule:nonzero;stroke:none;stroke-width:0.133333" />
        <path
           id="path64"
           d="m 153.73133,578.15894 -7.244,-7.22494 -7.24533,7.22494 v -19.8916 h 14.48933 v 19.8916"
           style="fill:#e72b61;fill-opacity:1;fill-rule:nonzero;stroke:none;stroke-width:0.133333" />
        <path
           id="path65"
           d="m 216.95666,588.49227 v 4.29747 c -7.768,0.888 -9.66933,7.4588 -9.66933,15.45359 v 2.64374 c 0,7.9948 1.90133,14.56573 9.66933,15.45373 v 4.27707 H 68.436932 c -6.094266,0 -11.032266,-4.93854 -11.032266,-11.03174 V 599.5444 c 0,-6.0932 4.938,-11.05213 11.032266,-11.05213 H 216.95666"
           style="fill:#e72b61;fill-opacity:1;fill-rule:nonzero;stroke:none;stroke-width:0.133333" />
        <path
           id="path66"
           d="m 214.642,621.9408 c 0.88933,2.10627 -0.74267,4.4 -3.016,4.4 L 69.696265,626.44333 V 592.68707 L 211.626,592.78974 c 0.82666,0 1.57066,0.30933 2.128,0.8068 0.992,0.82653 1.44666,2.25053 0.888,3.5948 -1.17734,2.80933 -1.136,6.71293 -1.136,11.05199 v 2.64374 c 0,4.33853 -0.0413,8.24426 1.136,11.05373"
           style="fill:#ffffff;fill-opacity:1;fill-rule:nonzero;stroke:none;stroke-width:0.133333" />
        <path
           id="path67"
           d="m 77.009865,612.41787 v -19.7256 l 109.906795,0.0803 c -0.068,0.2136 1.07867,1.09213 2.81334,2.2948 -16.29734,1.1104 -38.496,2.84533 -58.92134,5.18226 H 77.251999 v 3.04267 H 107.9536 c -7.412,1.16826 -13.995869,2.43906 -19.194802,3.80946 H 77.251999 v 3.04267 h 2.785466 c -1.447466,0.73333 -2.476,1.49067 -3.027066,2.27187 0,0 -5.34e-4,0 -5.34e-4,0.002"
           style="fill:#caedef;fill-opacity:1;fill-rule:nonzero;stroke:none;stroke-width:0.133333" />
        <path
           id="path68"
           d="M 77.009865,630.6256 H 64.530666 c -3.935867,0 -7.124934,-3.19053 -7.124934,-7.12493 V 595.6272 c 0,-3.93493 3.189067,-7.12546 7.124934,-7.12546 h 12.479199 v 42.12386"
           style="fill:#e72b61;fill-opacity:1;fill-rule:nonzero;stroke:none;stroke-width:0.133333" />
        <path
           id="path69"
           d="m 183.29266,626.3616 c 10e-4,0 0.003,0 0.004,-10e-4 l 28.32934,-0.0197 c 0.832,0 1.57733,-0.3068 2.14533,-0.79893 v 0 c -0.568,0.49213 -1.31333,0.79893 -2.14533,0.79893 l -28.33334,0.0208"
           style="fill:#c36493;fill-opacity:1;fill-rule:nonzero;stroke:none;stroke-width:0.133333" />
        <path
           id="path70"
           d="m 183.29666,626.36053 c 8.216,-0.93493 13.244,-3.9932 16.31867,-7.49893 H 213.506 v -3.04213 h -11.72534 c 1.136,-1.99227 1.78667,-3.97614 2.156,-5.67507 h 9.56934 v 0.74267 c 0,0.28813 0,0.57453 0,0.85893 0,3.9932 0.0373,7.57187 1.136,10.1948 0.17066,0.4036 0.248,0.81293 0.24666,1.21293 -0.003,0.924 -0.43066,1.79227 -1.11733,2.38814 -0.568,0.49213 -1.31333,0.79893 -2.14533,0.79893 l -28.32934,0.0197"
           style="fill:#caedef;fill-opacity:1;fill-rule:nonzero;stroke:none;stroke-width:0.133333" />
        <path
           id="path71"
           d="m 213.506,607.10173 h -9.13467 c 0.0747,-1.11466 0.0227,-1.79173 0.0227,-1.79173 0.0587,-0.20933 -0.89334,-0.96813 -2.37867,-2.01773 H 213.506 v -3.04267 h -15.992 c -2.71467,-1.79586 -5.68134,-3.72653 -7.784,-5.18226 13.74533,-0.93907 23.29333,-1.43227 24.024,-1.4708 v 0 c 0.69733,0.5812 1.12933,1.4572 1.13066,2.3948 0,0.3948 -0.076,0.80093 -0.24266,1.2 -1.07334,2.56146 -1.13334,6.03066 -1.136,9.91039"
           style="fill:#caedef;fill-opacity:1;fill-rule:nonzero;stroke:none;stroke-width:0.133333" />
        <path
           id="path72"
           d="m 211.626,592.78974 -24.70934,-0.0172 c 0,-0.002 0.001,-0.003 0.001,-0.004 l 24.708,0.0213"
           style="fill:#c36493;fill-opacity:1;fill-rule:nonzero;stroke:none;stroke-width:0.133333" />
        <path
           id="path73"
           d="m 189.73,595.06734 c -1.73467,-1.20267 -2.88134,-2.0812 -2.81334,-2.2948 l 24.70934,0.0172 c 0.82666,0 1.57066,0.30933 2.128,0.8068 -0.73067,0.0385 -10.27867,0.53173 -24.024,1.4708"
           style="fill:#aee4e9;fill-opacity:1;fill-rule:nonzero;stroke:none;stroke-width:0.133333" />
        <path
           id="path74"
           d="m 213.506,610.1444 v 0 -1.90107 c 0,-0.288 0,-0.57493 0,-0.8588 0,-0.0948 0,-0.188 0,-0.2828 v 0 3.04267"
           style="fill:#4a697f;fill-opacity:1;fill-rule:nonzero;stroke:none;stroke-width:0.133333" />
        <path
           id="path75"
           d="M 203.93666,610.1444 H 80.037465 c 2.0964,-1.064 5.0672,-2.07867 8.721333,-3.04267 H 204.37133 c -0.0547,0.81347 -0.176,1.8588 -0.43467,3.04267"
           style="fill:#caedef;fill-opacity:1;fill-rule:nonzero;stroke:none;stroke-width:0.133333" />
        <path
           id="path76"
           d="m 80.037465,610.1444 h -2.785466 v -3.04267 h 11.506799 c -3.654133,0.964 -6.624933,1.97867 -8.721333,3.04267"
           style="fill:#aee4e9;fill-opacity:1;fill-rule:nonzero;stroke:none;stroke-width:0.133333" />
        <path
           id="path77"
           d="m 213.506,610.1444 h -9.56934 c 0.25867,-1.18387 0.38,-2.2292 0.43467,-3.04267 h 9.13467 c 0,0.0948 0,0.188 0,0.2828 0,0.28387 0,0.5708 0,0.8588 v 1.90107"
           style="fill:#aee4e9;fill-opacity:1;fill-rule:nonzero;stroke:none;stroke-width:0.133333" />
        <path
           id="path78"
           d="M 202.01533,603.29227 H 107.9536 c 7.0284,-1.10613 14.80306,-2.12133 22.85506,-3.04267 H 197.514 c 1.68666,1.11507 3.27466,2.1776 4.50133,3.04267"
           style="fill:#caedef;fill-opacity:1;fill-rule:nonzero;stroke:none;stroke-width:0.133333" />
        <path
           id="path79"
           d="M 107.9536,603.29227 H 77.251999 v -3.04267 h 53.556661 c -8.052,0.92134 -15.82666,1.93654 -22.85506,3.04267"
           style="fill:#aee4e9;fill-opacity:1;fill-rule:nonzero;stroke:none;stroke-width:0.133333" />
        <path
           id="path80"
           d="m 213.506,603.29227 h -11.49067 c -1.22667,-0.86507 -2.81467,-1.9276 -4.50133,-3.04267 h 15.992 v 3.04267"
           style="fill:#aee4e9;fill-opacity:1;fill-rule:nonzero;stroke:none;stroke-width:0.133333" />
        <path
           id="path81"
           d="M 199.61533,618.8616 H 77.251999 v -3.04213 H 201.78066 c -0.584,1.02386 -1.296,2.0504 -2.16533,3.04213"
           style="fill:#caedef;fill-opacity:1;fill-rule:nonzero;stroke:none;stroke-width:0.133333" />
        <path
           id="path82"
           d="m 213.506,618.8616 h -13.89067 c 0.86933,-0.99173 1.58133,-2.01827 2.16533,-3.04213 H 213.506 v 3.04213"
           style="fill:#aee4e9;fill-opacity:1;fill-rule:nonzero;stroke:none;stroke-width:0.133333" />
        <path
           id="path83"
           d="m 198.602,622.78867 -7.65467,-7.63494 -7.65467,7.63494 v -21.0188 H 198.602 v 21.0188"
           style="fill:#e72b61;fill-opacity:1;fill-rule:nonzero;stroke:none;stroke-width:0.133333" />
        <path
           id="path84"
           d="m 936.15931,648.91947 v 3.07853 c 0,9.41464 -7.64,17.03964 -17.05333,17.03964 H 47.053066 c -7.932267,0 -14.599466,-5.41303 -16.506266,-12.73177 l -0.01347,-0.0412 C 30.186933,654.89133 30,653.46573 30,651.998 v -3.07853 c 0,-9.4152 7.627066,-17.04174 17.053066,-17.04174 H 919.10598 c 9.41333,0 17.05333,7.62654 17.05333,17.04174"
           style="fill:#3c5282;fill-opacity:1;fill-rule:nonzero;stroke:none;stroke-width:0.133333" />
        <path
           id="path85"
           d="M 919.10598,669.03764 H 47.053066 c -7.932267,0 -14.599466,-5.41303 -16.506266,-12.73177 l -0.01347,-0.0412 v 0 C 30.173866,653.5324 30,651.998 30,651.998 c 91.18066,3.1772 179.34466,4.47193 262.32599,4.47193 362.05066,0 626.77999,-24.5922 626.77999,-24.5922 9.41333,0 17.05333,7.62654 17.05333,17.04174 v 3.07853 c 0,6.80369 -3.98933,12.67297 -9.75467,15.40527 -2.21333,1.04947 -4.688,1.63437 -7.29866,1.63437"
           style="fill:#2d3a5d;fill-opacity:1;fill-rule:nonzero;stroke:none;stroke-width:0.133333" />
      </g>
      <g
         id="g237"
         style="display:none"
         transform="translate(361.49884,111.75367)">
        <path
           id="path221"
           d="m 473.10445,458.0267 c -8.67867,0.65373 -15.94267,-1.40934 -22.012,-5.176 -24.49466,-15.15734 -29.604,-57.9052 -29.95733,-61.1172 0.21467,0.98666 2.62933,6.21333 28.088,23.34 2.11866,1.42933 4.05866,2.8788 5.82933,4.34546 l 0.0933,0.0703 c 22.18534,18.37347 17.95867,38.53747 17.95867,38.53747"
           style="fill:#098b73;fill-opacity:1;fill-rule:nonzero;stroke:none;stroke-width:0.133333" />
        <path
           id="path222"
           d="m 425,399.33067 c 0.008,0.0187 5.73466,14.07333 14.65466,28.89466 4.46134,7.4104 9.71867,15.01347 15.48,21.1588 5.76267,6.1412 12.02667,10.8464 18.57734,12.37867 l 0.30133,-1.29893 c -6.13467,-1.42134 -12.24533,-5.9464 -17.90667,-11.99174 -8.49733,-9.0604 -15.98266,-21.48426 -21.324,-31.63346 -2.672,-5.07334 -4.81066,-9.58 -6.28,-12.816 -0.73466,-1.61867 -1.30266,-2.91867 -1.68533,-3.81334 -0.384,-0.89466 -0.58133,-1.38 -0.58267,-1.38133 L 425,399.33067"
           style="fill:#0b7259;fill-opacity:1;fill-rule:nonzero;stroke:none;stroke-width:0.133333" />
        <path
           id="path223"
           d="m 474.46266,465.68107 c -7.308,0 -13.548,-1.99174 -18.86933,-5.29587 1.00533,-2.37973 1.764,-5.2 2.336,-8.17867 4.97333,4.73854 10.276,8.26934 15.78267,9.55627 l 0.30133,-1.29893 c -5.38133,-1.2464 -10.74267,-4.8812 -15.8,-9.8344 1.86533,-11.10934 1.34,-23.676 1.34,-23.676 l 0.0933,0.0703 c 2.29334,1.9 4.30534,3.81774 6.068,5.73227 0.29734,4.98133 1.284,9.31987 2.68667,13.06413 h 0.005 v 0 0 c 2.40134,6.40774 6.02,11.07187 9.49067,14.22654 0.02,0.48026 0.0293,0.93173 0.0293,1.35733 0.001,2.6172 -0.32133,4.1572 -0.32133,4.1572 -1.06933,0.0813 -2.11733,0.11987 -3.14267,0.11987"
           style="fill:#0a7e66;fill-opacity:1;fill-rule:nonzero;stroke:none;stroke-width:0.133333" />
        <path
           id="path224"
           d="m 473.712,461.7628 c -5.50667,-1.28693 -10.80934,-4.81773 -15.78267,-9.55627 0.1,-0.52133 0.19467,-1.04786 0.284,-1.57706 5.05733,4.9532 10.41867,8.588 15.8,9.8344 l -0.30133,1.29893"
           style="fill:#0b7259;fill-opacity:1;fill-rule:nonzero;stroke:none;stroke-width:0.133333" />
        <path
           id="path225"
           d="m 542.61733,402.392 c -0.096,0.59733 -0.43867,2.67067 -1.12267,5.72267 v 0.0107 c -3.61333,16.18387 -16.65733,59.7292 -51.74933,55.364 0,0 -0.592,-3.73586 0.592,-9.32653 1.736,-8.22027 7.316,-20.45627 24.28933,-30.71773 25.18933,-15.23307 27.736,-20.12374 27.99067,-21.05307"
           style="fill:#098b73;fill-opacity:1;fill-rule:nonzero;stroke:none;stroke-width:0.133333" />
        <path
           id="path226"
           d="m 540.87333,405.60933 c 0,0 -0.068,0.17467 -0.20534,0.516 -1.03466,2.552 -5.95866,14.2 -14.25466,26.2896 -8.292,12.09574 -19.96267,24.5984 -34.364,28.97294 l 0.38933,1.276 c 15.88,-4.84947 28.252,-19.01987 36.704,-31.9292 8.448,-12.91734 12.964,-24.61867 12.97467,-24.64534 l -1.244,-0.48"
           style="fill:#0b7259;fill-opacity:1;fill-rule:nonzero;stroke:none;stroke-width:0.133333" />
        <path
           id="path227"
           d="m 494.57866,463.79613 c -1.564,0 -3.17066,-0.1 -4.83333,-0.3068 0,0 -0.088,-0.55466 -0.128,-1.55626 1.468,-2.65574 2.83333,-5.25987 4.09333,-7.80254 13.21067,-0.95986 24.748,-11.6036 33.17733,-22.41306 -0.156,0.23186 -0.31466,0.4636 -0.47466,0.69746 -8.292,12.09574 -19.96267,24.5984 -34.364,28.97294 l 0.38933,1.276 c 15.88,-4.84947 28.252,-19.01987 36.704,-31.9292 4.72667,-7.22654 8.22133,-14.072 10.38533,-18.70534 1.28534,-2.43333 1.96667,-3.91466 1.96667,-3.91466 v 0.0107 c -3.44267,15.4172 -15.448,55.6708 -46.916,55.6708"
           style="fill:#0a7e66;fill-opacity:1;fill-rule:nonzero;stroke:none;stroke-width:0.133333" />
        <path
           id="path228"
           d="m 492.43866,462.66387 -0.38933,-1.276 c 14.40133,-4.37454 26.072,-16.8772 34.364,-28.97294 0.16,-0.23386 0.31866,-0.4656 0.47466,-0.69746 5.90534,-7.57347 10.28534,-15.22814 12.64,-19.68814 -2.164,4.63334 -5.65866,11.4788 -10.38533,18.70534 -8.452,12.90933 -20.824,27.07973 -36.704,31.9292"
           style="fill:#0b7259;fill-opacity:1;fill-rule:nonzero;stroke:none;stroke-width:0.133333" />
        <path
           id="path229"
           d="m 487.86133,465.04507 c -0.86667,1.5068 -13.68133,-3.8172 -19.45467,-19.22494 h -0.005 c -3.46667,-9.25466 -4.39067,-22.14946 1.33733,-39.38013 15.04934,-45.24933 8.84667,-53.78133 8.66267,-54.02 0.30267,0.14267 13.38,6.636 21.81467,22.436 l 0.0347,0.0613 c 9.276,17.428 12.896,46.14934 -12.38933,90.12774"
           style="fill:#02a987;fill-opacity:1;fill-rule:nonzero;stroke:none;stroke-width:0.133333" />
        <path
           id="path230"
           d="m 477.87333,352.828 0.0333,0.044 c 0.75067,0.97867 13.66934,18.24533 13.66934,50.52533 0,6.344 -0.49867,13.27067 -1.688,20.76907 -3.27734,20.66147 -4.20267,31.0548 -4.204,36.27613 0.003,2.0896 0.144,3.35107 0.37466,4.16814 0.11867,0.40946 0.256,0.71626 0.46667,0.96666 0.20267,0.2496 0.54133,0.42667 0.85467,0.4188 0.376,-0.008 0.61066,-0.17493 0.76133,-0.29066 0.15067,-0.12387 0.23067,-0.23067 0.25067,-0.2572 l -1.06134,-0.80574 0.23067,0.176 -0.224,-0.18546 -0.007,0.009 0.23067,0.176 -0.224,-0.18546 -0.0453,0.0428 10e-4,10e-4 0.0867,0.21054 v -0.22507 l -0.0867,0.0145 0.0867,0.21054 v -0.22507 0.28227 l 0.12666,-0.25307 -0.12666,-0.0292 v 0.28227 l 0.12666,-0.25307 -0.084,0.16827 0.11467,-0.1496 -0.0307,-0.0187 -0.084,0.16827 0.11467,-0.1496 -0.0253,0.0308 0.0307,-0.0265 -0.005,-0.004 -0.0253,0.0308 0.0307,-0.0265 c -0.0227,-0.009 -0.20266,-0.3 -0.31733,-0.98026 -0.12133,-0.68014 -0.208,-1.73587 -0.208,-3.29214 -10e-4,-5.07346 0.91333,-15.4412 4.18667,-36.06666 1.20133,-7.56787 1.70533,-14.56387 1.70533,-20.97854 0.001,-33.7 -13.92933,-51.31999 -13.992,-51.39733 l -1.044,0.828"
           style="fill:#098b73;fill-opacity:1;fill-rule:nonzero;stroke:none;stroke-width:0.133333" />
        <path
           id="path232"
           d="m 487.19066,465.2904 c -0.252,0 -0.56666,-0.0437 -0.932,-0.1344 v 0 c -0.076,-0.15987 -0.14133,-0.34 -0.2,-0.54533 -0.23066,-0.81707 -0.372,-2.07854 -0.37466,-4.16814 10e-4,-3.97613 0.53733,-10.9532 2.24133,-23.17866 0.62533,-0.96667 1.21867,-1.99067 1.78267,-3.06507 -2.06667,14.23587 -2.692,22.04947 -2.69067,26.24373 0,1.55627 0.0867,2.612 0.208,3.29214 0.108,0.6412 0.27333,0.936 0.31067,0.97453 l 10e-4,10e-4 0.005,0.004 v 0 l -0.0293,0.0265 -0.0173,0.0224 0.0653,0.0547 -0.068,-0.0521 v 0 l 0.368,0.27867 c -0.0933,0.16306 -0.32533,0.24533 -0.67067,0.24533 M 487.38,464.68 v 0 0 0 m 0,-0.012 v 0 -0.005 0.005"
           style="fill:#098b73;fill-opacity:1;fill-rule:nonzero;stroke:none;stroke-width:0.133333" />
        <path
           id="path233"
           d="m 425.61466,399.08 0.016,0.15733 -0.016,-0.15733"
           style="fill:#098b73;fill-opacity:1;fill-rule:nonzero;stroke:none;stroke-width:0.133333" />
        <path
           id="path234"
           d="m 512.69733,464.37213 v 36.16933 c 0,10.58227 -8.57733,19.15987 -19.15867,19.15987 H 476.528 c -6.92667,0 -12.99734,-3.676 -16.36,-9.1896 h -0.005 c -1.77333,-2.9052 -2.79333,-6.31973 -2.79333,-9.97027 v -36.16933 h 55.328"
           style="fill:#f78f45;fill-opacity:1;fill-rule:nonzero;stroke:none;stroke-width:0.133333" />
        <path
           id="path235"
           d="M 514.70799,459.68 H 455.36 c -0.78,0 -1.412,0.63333 -1.412,1.4136 v 1.86667 c 0,0.7796 0.632,1.41186 1.412,1.41186 h 59.34799 c 0.78,0 1.412,-0.63066 1.412,-1.41186 v -1.86667 c 0,-0.78027 -0.632,-1.4136 -1.412,-1.4136"
           style="fill:#f78f45;fill-opacity:1;fill-rule:nonzero;stroke:none;stroke-width:0.133333" />
        <path
           id="path231"
           d="m 486.25866,465.156 c -1.85333,-0.45627 -5.03866,-2.09053 -8.36133,-5.10933 -3.47067,-3.15467 -7.08933,-7.8188 -9.49067,-14.22654 1.74934,0.49734 3.40534,0.73334 4.96667,0.73334 6.15333,0 10.896,-3.64427 14.552,-9.2896 -1.704,12.22546 -2.24,19.20253 -2.24133,23.17866 0.003,2.0896 0.144,3.35107 0.37466,4.16814 0.0587,0.20533 0.124,0.38546 0.2,0.54533 m 1.60267,-0.11093 -0.368,-0.27867 v 0 l 0.068,0.0521 -0.0653,-0.0547 0.0173,-0.0224 0.0293,-0.0265 v 0 l -0.005,-0.004 -10e-4,-10e-4 c -0.0373,-0.0385 -0.20267,-0.33333 -0.31067,-0.97453 -0.12133,-0.68014 -0.208,-1.73587 -0.208,-3.29214 -0.001,-4.19426 0.624,-12.00786 2.69067,-26.24373 10.75066,-20.5068 10.508,-59.3428 10.508,-59.3428 l 0.0347,0.0613 c 4.02134,7.556 6.98,17.236 6.98134,29.36267 0,13.45733 -3.64267,29.92547 -13.52134,49.85053 -1.26,2.54267 -2.62533,5.1468 -4.09333,7.80254 -0.56933,1.02973 -1.15467,2.06573 -1.756,3.112 v 0"
           style="fill:#049c7f;fill-opacity:1;fill-rule:nonzero;stroke:none;stroke-width:0.133333" />
        <path
           id="path236"
           d="m 512.69733,464.37213 v 36.16933 c 0,10.58227 -8.57733,19.15987 -19.15867,19.15987 H 476.528 c -6.92667,0 -12.99734,-3.676 -16.36,-9.1896 40.52266,12.72707 49.324,-17.07187 47.756,-28.88906 -1.56134,-11.8172 -16.16267,-17.25054 -16.16267,-17.25054 h 20.936"
           style="fill:#f57819;fill-opacity:1;fill-rule:nonzero;stroke:none;stroke-width:0.133333" />
      </g>
      <path
         id="path86"
         d="m 6842.95,3574.83 c -45.58,0 -82.53,36.94 -82.53,82.53 0,45.58 36.95,82.53 82.53,82.53 45.59,0 82.53,-36.95 82.53,-82.53 0,-45.59 -36.94,-82.53 -82.53,-82.53 z m 172.45,80.14 0.1,2.39 -0.1,2.29 c 11.96,5.51 24.03,11.86 35.9,19.56 12.69,8.74 25.6,18.84 37.57,30.39 l -2.6,10.2 c -2.5,11.55 -6.97,22.68 -11.04,33.82 -2.28,5.41 -4.99,10.72 -7.59,16.03 -2.4,5.52 -5.31,10.61 -8.53,15.61 l -5.42,8.95 c -16.34,-0.1 -32.88,-2.18 -47.98,-5 -13.62,-2.8 -26.84,-6.86 -39.12,-11.55 l -3.33,3.33 c 4.58,12.39 8.74,25.5 11.45,39.13 2.91,15.09 4.99,31.64 5.09,47.98 l -8.94,5.41 c -5,3.23 -10.21,6.14 -15.62,8.54 -5.31,2.6 -10.61,5.3 -16.13,7.59 -11.13,4.06 -22.17,8.54 -33.72,11.03 l -10.19,2.61 c -11.55,-11.97 -21.65,-24.77 -30.4,-37.57 -7.69,-11.77 -14.04,-23.84 -19.56,-35.91 l -2.29,0.21 -2.39,-0.21 c -5.41,12.07 -11.87,24.14 -19.57,35.91 -8.64,12.8 -18.83,25.6 -30.28,37.57 l -10.2,-2.61 c -11.65,-2.49 -22.69,-6.97 -33.82,-11.03 -5.41,-2.29 -10.72,-4.99 -16.13,-7.59 -5.41,-2.4 -10.51,-5.31 -15.62,-8.54 l -8.94,-5.41 c 0.2,-16.34 2.28,-32.89 5.09,-47.98 2.81,-13.63 6.87,-26.74 11.56,-39.13 -1.15,-1.14 -2.3,-2.18 -3.33,-3.33 -12.39,4.69 -25.5,8.75 -39.13,11.55 -15.09,2.82 -31.74,4.9 -47.98,5 l -5.52,-8.95 c -3.12,-5 -6.04,-10.09 -8.53,-15.61 -2.5,-5.31 -5.2,-10.62 -7.5,-16.03 -4.16,-11.14 -8.53,-22.27 -11.02,-33.82 l -2.61,-10.2 c 11.97,-11.55 24.78,-21.65 37.57,-30.39 11.76,-7.7 23.84,-14.05 35.8,-19.56 l -0.1,-2.29 0.1,-2.39 c -11.96,-5.41 -24.04,-11.87 -35.8,-19.58 -12.79,-8.63 -25.6,-18.83 -37.57,-30.28 l 2.61,-10.2 c 2.49,-11.55 6.86,-22.68 11.02,-33.82 2.3,-5.41 5,-10.72 7.5,-16.13 2.49,-5.41 5.41,-10.51 8.53,-15.51 l 5.52,-8.95 c 16.24,0.1 32.89,2.19 47.98,5 13.63,2.81 26.74,6.87 39.13,11.55 1.03,-1.14 2.18,-2.29 3.33,-3.33 -4.69,-12.38 -8.75,-25.5 -11.56,-39.13 -2.81,-15.09 -4.89,-31.74 -5.09,-47.98 l 8.94,-5.51 c 5.11,-3.12 10.21,-6.04 15.62,-8.43 5.41,-2.6 10.72,-5.31 16.13,-7.6 11.13,-4.16 22.17,-8.53 33.82,-11.03 l 10.2,-2.6 c 11.45,11.97 21.64,24.77 30.28,37.57 7.7,11.76 14.16,23.83 19.57,35.9 l 2.39,-0.21 2.29,0.21 c 5.52,-12.07 11.87,-24.14 19.56,-35.9 8.75,-12.8 18.85,-25.6 30.4,-37.57 l 10.19,2.6 c 11.55,2.5 22.59,6.87 33.72,11.03 5.52,2.29 10.82,5 16.13,7.6 5.41,2.39 10.62,5.31 15.62,8.43 l 8.94,5.51 c -0.1,16.24 -2.18,32.89 -5.09,47.98 -2.71,13.63 -6.87,26.75 -11.45,39.13 1.14,1.04 2.19,2.19 3.33,3.33 12.28,-4.68 25.5,-8.74 39.12,-11.55 15.1,-2.81 31.64,-4.9 47.98,-5 l 5.42,8.95 c 3.22,5 6.13,10.1 8.53,15.51 2.6,5.41 5.31,10.72 7.59,16.13 4.07,11.14 8.54,22.27 11.04,33.82 l 2.6,10.2 c -11.97,11.45 -24.88,21.65 -37.57,30.28 -11.87,7.71 -23.94,14.17 -35.9,19.58"
         style="fill:#f78f45;fill-opacity:1;fill-rule:nonzero;stroke:none"
         transform="matrix(0.13333333,0,0,-0.13333333,0,668.30667)" />
      <path
         id="path87"
         d="m 6606.38,3534.98 h -40 v -10 h 40 z m -80,0 h -40 v -10 h 40 z m -80,0 h -40 v -10 h 40 z m -80,0 h -40 v -10 h 40 z m -80,0 h -40 v -10 h 40 z m -80,0 h -40 v -10 h 40 z m -80,0 h -40 v -10 h 40 z m -81.88,-48.12 h 10 v 40 h -10 z m 0,-80 h 10 v 40 h -10 z m 0,-80 h 10 v 40 h -10 z m 0,-80 h 10 v 40 h -10 z m 0,-80 h 10 v 40 h -10 z m 0,-80 h 10 v 40 h -10 z m 0,-80 h 10 v 40 h -10 z m 19.71,-30.3 h 40 v 10 h -40 z m 80,0 h 40 v 10 h -40 z"
         style="fill:#f36241;fill-opacity:1;fill-rule:nonzero;stroke:none"
         transform="matrix(0.13333333,0,0,-0.13333333,0,668.30667)" />
      <path
         id="path88"
         d="m 6523.54,2633.31 h -306.15 v 54.72 h 306.15 v -54.72"
         style="fill:#ffffff;fill-opacity:1;fill-rule:nonzero;stroke:none"
         transform="matrix(0.13333333,0,0,-0.13333333,0,668.30667)" />
      <path
         id="path89"
         d="m 6688.07,2532.08 h -470.68 v 54.72 h 470.68 v -54.72"
         style="fill:#ffffff;fill-opacity:1;fill-rule:nonzero;stroke:none"
         transform="matrix(0.13333333,0,0,-0.13333333,0,668.30667)" />
      <path
         id="path90"
         d="m 6377.7,2430.85 h -160.31 v 54.72 h 160.31 v -54.72"
         style="fill:#ffffff;fill-opacity:1;fill-rule:nonzero;stroke:none"
         transform="matrix(0.13333333,0,0,-0.13333333,0,668.30667)" />
      <path
         id="path91"
         d="m 6603.44,2430.85 h -160.31 v 54.72 h 160.31 v -54.72"
         style="fill:#f78f45;fill-opacity:1;fill-rule:nonzero;stroke:none"
         transform="matrix(0.13333333,0,0,-0.13333333,0,668.30667)" />
      <path
         id="path92"
         d="M 6891.01,2430.85 H 6660.8 v 54.72 h 230.21 v -54.72"
         style="fill:#f78f45;fill-opacity:1;fill-rule:nonzero;stroke:none"
         transform="matrix(0.13333333,0,0,-0.13333333,0,668.30667)" />
      <path
         id="path93"
         d="m 6891.01,2532.08 h -139.79 v 54.72 h 139.79 v -54.72"
         style="fill:#f78f45;fill-opacity:1;fill-rule:nonzero;stroke:none"
         transform="matrix(0.13333333,0,0,-0.13333333,0,668.30667)" />
      <path
         id="path94"
         d="m 6891.01,2633.31 h -306.15 v 54.72 h 306.15 v -54.72"
         style="fill:#f78f45;fill-opacity:1;fill-rule:nonzero;stroke:none"
         transform="matrix(0.13333333,0,0,-0.13333333,0,668.30667)" />
      <path
         id="path95"
         d="m 6992.95,2432.51 h 10.2 v 609.85 h -10.2 v -609.85"
         style="fill:#ffffff;fill-opacity:1;fill-rule:nonzero;stroke:none"
         transform="matrix(0.13333333,0,0,-0.13333333,0,668.30667)" />
      <path
         id="path96"
         d="m 6536.95,2963.69 h -314.81 v 56.27 h 314.81 v -56.27"
         style="fill:#ffffff;fill-opacity:1;fill-rule:nonzero;stroke:none"
         transform="matrix(0.13333333,0,0,-0.13333333,0,668.30667)" />
      <path
         id="path97"
         d="m 6706.14,2859.59 h -484 v 56.27 h 484 v -56.27"
         style="fill:#ffffff;fill-opacity:1;fill-rule:nonzero;stroke:none"
         transform="matrix(0.13333333,0,0,-0.13333333,0,668.30667)" />
      <path
         id="path98"
         d="m 6386.99,2755.5 h -164.85 v 56.27 h 164.85 v -56.27"
         style="fill:#ffffff;fill-opacity:1;fill-rule:nonzero;stroke:none"
         transform="matrix(0.13333333,0,0,-0.13333333,0,668.30667)" />
      <path
         id="path99"
         d="m 6619.12,2755.5 h -164.85 v 56.27 h 164.85 v -56.27"
         style="fill:#f78f45;fill-opacity:1;fill-rule:nonzero;stroke:none"
         transform="matrix(0.13333333,0,0,-0.13333333,0,668.30667)" />
      <path
         id="path100"
         d="m 6914.82,2755.5 h -236.71 v 56.27 h 236.71 v -56.27"
         style="fill:#f78f45;fill-opacity:1;fill-rule:nonzero;stroke:none"
         transform="matrix(0.13333333,0,0,-0.13333333,0,668.30667)" />
      <path
         id="path101"
         d="m 6914.82,2859.59 h -143.75 v 56.27 h 143.75 v -56.27"
         style="fill:#f78f45;fill-opacity:1;fill-rule:nonzero;stroke:none"
         transform="matrix(0.13333333,0,0,-0.13333333,0,668.30667)" />
      <path
         id="path102"
         d="m 6914.82,2963.69 h -314.81 v 56.27 h 314.81 v -56.27"
         style="fill:#f78f45;fill-opacity:1;fill-rule:nonzero;stroke:none"
         transform="matrix(0.13333333,0,0,-0.13333333,0,668.30667)" />
      <path
         id="path103"
         d="m 5827.05,2288.35 h -905.91 v 1780.21 h 905.91 V 2288.35"
         style="fill:#3f436d;fill-opacity:1;fill-rule:nonzero;stroke:none"
         transform="matrix(0.13333333,0,0,-0.13333333,0,668.30667)" />
      <path
         id="path104"
         d="m 5704.49,3617.7 h -680.15 v 72.24 h 680.15 v -72.24"
         style="fill:#ffffff;fill-opacity:1;fill-rule:nonzero;stroke:none"
         transform="matrix(0.13333333,0,0,-0.13333333,0,668.30667)" />
      <path
         id="path105"
         d="m 5474.5,3457.74 h -450.16 v 72.24 h 450.16 v -72.24"
         style="fill:#ffffff;fill-opacity:1;fill-rule:nonzero;stroke:none"
         transform="matrix(0.13333333,0,0,-0.13333333,0,668.30667)" />
      <path
         id="path106"
         d="m 5704.49,3457.74 h -163.13 v 72.24 h 163.13 v -72.24"
         style="fill:#f78f45;fill-opacity:1;fill-rule:nonzero;stroke:none"
         transform="matrix(0.13333333,0,0,-0.13333333,0,668.30667)" />
      <path
         id="path107"
         d="m 5704.49,3297.78 h -421.48 v 72.24 h 421.48 v -72.24"
         style="fill:#f78f45;fill-opacity:1;fill-rule:nonzero;stroke:none"
         transform="matrix(0.13333333,0,0,-0.13333333,0,668.30667)" />
      <path
         id="path108"
         d="m 5221.73,3297.78 h -197.39 v 72.24 h 197.39 v -72.24"
         style="fill:#ffffff;fill-opacity:1;fill-rule:nonzero;stroke:none"
         transform="matrix(0.13333333,0,0,-0.13333333,0,668.30667)" />
      <path
         id="path109"
         d="m 5383.86,3137.82 h -359.52 v 72.24 h 359.52 v -72.24"
         style="fill:#ffffff;fill-opacity:1;fill-rule:nonzero;stroke:none"
         transform="matrix(0.13333333,0,0,-0.13333333,0,668.30667)" />
      <path
         id="path110"
         d="m 5704.49,3137.82 h -265.26 v 72.24 h 265.26 v -72.24"
         style="fill:#f78f45;fill-opacity:1;fill-rule:nonzero;stroke:none"
         transform="matrix(0.13333333,0,0,-0.13333333,0,668.30667)" />
      <path
         id="path111"
         d="m 5704.49,2977.86 h -482.76 v 72.24 h 482.76 v -72.24"
         style="fill:#f78f45;fill-opacity:1;fill-rule:nonzero;stroke:none"
         transform="matrix(0.13333333,0,0,-0.13333333,0,668.30667)" />
      <path
         id="path112"
         d="m 5170.27,2977.86 h -145.93 v 72.24 h 145.93 v -72.24"
         style="fill:#ffffff;fill-opacity:1;fill-rule:nonzero;stroke:none"
         transform="matrix(0.13333333,0,0,-0.13333333,0,668.30667)" />
      <path
         id="path113"
         d="m 5316.2,2817.9 h -291.86 v 72.24 h 291.86 v -72.24"
         style="fill:#ffffff;fill-opacity:1;fill-rule:nonzero;stroke:none"
         transform="matrix(0.13333333,0,0,-0.13333333,0,668.30667)" />
      <path
         id="path114"
         d="m 5704.49,2817.9 h -340.08 v 72.24 h 340.08 v -72.24"
         style="fill:#f78f45;fill-opacity:1;fill-rule:nonzero;stroke:none"
         transform="matrix(0.13333333,0,0,-0.13333333,0,668.30667)" />
      <path
         id="path115"
         d="m 5684.4,2463.82 v -20.32 l -74.44,-28.31 v 19.55 l 52.08,18.93 -52.08,19.07 v 19.39 l 74.44,-28.31"
         style="fill:#f78f45;fill-opacity:1;fill-rule:nonzero;stroke:none"
         transform="matrix(0.13333333,0,0,-0.13333333,0,668.30667)" />
      <path
         id="path116"
         d="m 5472.75,2492.13 v -19.39 l -52.08,-19.07 52.08,-18.93 v -19.55 l -74.44,28.31 v 20.32 l 74.44,28.31"
         style="fill:#f78f45;fill-opacity:1;fill-rule:nonzero;stroke:none"
         transform="matrix(0.13333333,0,0,-0.13333333,0,668.30667)" />
      <path
         id="path117"
         d="m 5560.76,2546.94 h 23.29 l -55.29,-157.81 h -23.28 l 55.28,157.81"
         style="fill:#f78f45;fill-opacity:1;fill-rule:nonzero;stroke:none"
         transform="matrix(0.13333333,0,0,-0.13333333,0,668.30667)" />
      <path
         id="path118"
         d="m 5342.59,3853.11 v -26.64 l -97.57,-37.1 v 25.62 l 68.25,24.8 -68.25,25.01 v 25.42 l 97.57,-37.11"
         style="fill:#f78f45;fill-opacity:1;fill-rule:nonzero;stroke:none"
         transform="matrix(0.13333333,0,0,-0.13333333,0,668.30667)" />
      <path
         id="path119"
         d="m 5163.17,3890.22 v -25.42 l -68.25,-25.01 68.25,-24.8 v -25.62 l -97.55,37.1 v 26.64 l 97.55,37.11"
         style="fill:#f78f45;fill-opacity:1;fill-rule:nonzero;stroke:none"
         transform="matrix(0.13333333,0,0,-0.13333333,0,668.30667)" />
      <path
         id="path120"
         d="m 9.4093516,-12.891484 v 4.5585934 H 5.4015391 V -12.891484 H 1.0538828 V -8.59375e-4 H 5.4015391 V -4.7586719 H 9.4093516 V -8.59375e-4 H 13.757008 V -12.891484 Z M 18.670094,-8.59375e-4 H 23.01775 V -9.5282031 h 3.773438 v -3.3632809 h -11.90625 v 3.3632809 h 3.785156 z m 24.717773,0 -0.03516,-12.890624625 h -3.574219 l -4.089844,6.8671871 -4.195312,-6.8671871 H 27.919117 V -8.59375e-4 h 3.960938 V -5.6727344 l 2.800781,4.5117188 h 1.910156 l 2.800781,-4.7109375 0.03516,5.871093725 z m 2.112305,0 H 55.660328 V -3.3758594 h -5.8125 v -9.5156246 h -4.347656 z m 0,0"
         style="fill:#ffffff;fill-opacity:1;fill-rule:nonzero;stroke:none"
         aria-label="HTML"
         transform="matrix(1.3333333,0,0,1.3333333,656.93467,106.49333)" />
      <path
         id="path121"
         d="m 633.984,1938.46 c -79.476,-35.45 -172.972,0.37 -208.418,79.85 -21.086,47.27 -16.945,99.5 6.598,141.49 l 0.524,0.97 c 16.046,28.23 40.863,51.75 72.734,65.96 5.961,2.66 12.039,4.92 18.148,6.76 l 1.922,0.61 c 31.571,9.24 64.317,8.08 94.086,-1.87 l 0.363,-0.1 c 25.504,-8.58 48.774,-23.63 67.176,-44.09 10.754,-11.92 19.84,-25.73 26.723,-41.16 4.273,-9.6 7.5,-19.39 9.738,-29.25 16.418,-71.95 -19.715,-148.01 -89.594,-179.17 z m 95.196,306.36 c -18.805,18.44 -40.524,33.35 -64.067,44.17 l -1.289,0.6 c -33.183,15.04 -69.824,22.16 -106.832,20.12 -25.308,-1.34 -50.765,-7.04 -75.367,-17.37 -1.523,-0.65 -3.07,-1.31 -4.582,-1.98 -44.113,-19.67 -78.914,-51.75 -102.07,-90.34 -37.039,-61.55 -44.461,-139.62 -13.035,-210.08 51.089,-114.55 185.871,-166.2 300.421,-115.1 105.008,46.82 157.145,163.96 125.762,271.39 -2.844,9.79 -6.402,19.48 -10.66,29.03 -11.953,26.8 -28.477,50.16 -48.281,69.56"
         style="fill:#5c5e94;fill-opacity:1;fill-rule:nonzero;stroke:none"
         transform="matrix(0.13333333,0,0,-0.13333333,0,668.30667)" />
      <path
         id="path122"
         d="m 665.113,2288.99 c 23.543,-10.82 45.262,-25.73 64.067,-44.17 19.804,-19.4 36.328,-42.76 48.281,-69.56 4.258,-9.55 7.816,-19.24 10.66,-29.03 l -64.543,-28.6 c -2.238,9.86 -5.465,19.65 -9.738,29.25 -6.883,15.43 -15.969,29.24 -26.723,41.16 -18.402,20.46 -41.672,35.51 -67.176,44.09 l -0.363,0.1 44.246,57.36"
         style="fill:#f78f45;fill-opacity:1;fill-rule:nonzero;stroke:none"
         transform="matrix(0.13333333,0,0,-0.13333333,0,668.30667)" />
      <path
         id="path123"
         d="m 665.113,2288.99 -45.172,-56.86"
         style="fill:#f78f45;fill-opacity:1;fill-rule:nonzero;stroke:none"
         transform="matrix(0.13333333,0,0,-0.13333333,0,668.30667)" />
      <path
         id="path124"
         d="m 619.941,2232.13 -0.363,0.1 c -29.769,9.95 -62.515,11.11 -94.086,1.87 l -1.922,-0.61 -41.945,58.85 c 24.602,10.33 50.059,16.03 75.367,17.37 37.008,2.04 73.649,-5.08 106.832,-20.12"
         style="fill:#d82b62;fill-opacity:1;fill-rule:nonzero;stroke:none"
         transform="matrix(0.13333333,0,0,-0.13333333,0,668.30667)" />
      <path
         id="path125"
         d="m 582.844,1835.12 h 10 v 20 h -10 z"
         style="fill:#f36241;fill-opacity:1;fill-rule:nonzero;stroke:none"
         transform="matrix(0.13333333,0,0,-0.13333333,0,668.30667)" />
      <path
         id="path126"
         d="m 582.844,1758.58 h 10 v 38.2695 h -10 z m 0,-76.55 h 10 v 38.2695 h -10 z m 0,-76.55 h 10 v 38.2695 h -10 z m 0,-76.55 h 10 v 38.2813 h -10 z"
         style="fill:#f36241;fill-opacity:1;fill-rule:nonzero;stroke:none"
         transform="matrix(0.13333333,0,0,-0.13333333,0,668.30667)" />
      <path
         id="path127"
         d="m 582.844,1490.65 v -25 h 25 v 10 h -15 v 15 h -10"
         style="fill:#f36241;fill-opacity:1;fill-rule:nonzero;stroke:none"
         transform="matrix(0.13333333,0,0,-0.13333333,0,668.30667)" />
      <path
         id="path128"
         d="m 648.992,1465.65 h 41.1563 v 10 H 648.992 Z m 82.313,0 h 41.1563 v 10 H 731.305 Z m 82.312,0 h 41.1563 v 10 H 813.617 Z m 82.313,0 h 41.1563 v 10 H 895.93 Z m 82.312,0 h 41.1563 v 10 H 978.242 Z m 82.308,0 h 41.1602 v 10 H 1060.55 Z m 82.32,0 h 41.1484 v 10 H 1142.87 Z"
         style="fill:#f36241;fill-opacity:1;fill-rule:nonzero;stroke:none"
         transform="matrix(0.13333333,0,0,-0.13333333,0,668.30667)" />
      <path
         id="path129"
         d="m 1225.18,1465.65 h 25 v 25 h -10 v -15 h -15 v -10"
         style="fill:#f36241;fill-opacity:1;fill-rule:nonzero;stroke:none"
         transform="matrix(0.13333333,0,0,-0.13333333,0,668.30667)" />
      <path
         id="path130"
         d="m 1250.18,1568.55 h -10 v -38.9492 h 10 z m 0,77.9 h -10 v -38.9492 h 10 z m 0,77.89 h -10 v -38.9492 h 10 z m 0,77.9 h -10 v -38.9531 h 10 z"
         style="fill:#f36241;fill-opacity:1;fill-rule:nonzero;stroke:none"
         transform="matrix(0.13333333,0,0,-0.13333333,0,668.30667)" />
      <path
         id="path131"
         d="m 1240.18,1841.19 h 10 v 20 h -10 z"
         style="fill:#f36241;fill-opacity:1;fill-rule:nonzero;stroke:none"
         transform="matrix(0.13333333,0,0,-0.13333333,0,668.30667)" />
      <path
         id="path132"
         d="M 2933.75,1880.12 H 1005.28 V 4179.3 H 2933.75 V 1880.12"
         style="fill:#3f436d;fill-opacity:1;fill-rule:nonzero;stroke:none"
         transform="matrix(0.13333333,0,0,-0.13333333,0,668.30667)" />
      <path
         id="path133"
         d="M 2933.75,3999.49 H 1005.28 v 291.81 h 1928.47 v -291.81"
         style="fill:#5c5e94;fill-opacity:1;fill-rule:nonzero;stroke:none"
         transform="matrix(0.13333333,0,0,-0.13333333,0,668.30667)" />
      <path
         id="path134"
         d="m 2710.6,2038.27 v -18.94 l -69.35,-26.37 v 18.21 l 48.52,17.63 -48.52,17.78 v 18.06 l 69.35,-26.37"
         style="fill:#f78f45;fill-opacity:1;fill-rule:nonzero;stroke:none"
         transform="matrix(0.13333333,0,0,-0.13333333,0,668.30667)" />
      <path
         id="path135"
         d="m 2513.43,2064.64 v -18.06 l -48.51,-17.78 48.51,-17.63 v -18.21 l -69.35,26.37 v 18.94 l 69.35,26.37"
         style="fill:#f78f45;fill-opacity:1;fill-rule:nonzero;stroke:none"
         transform="matrix(0.13333333,0,0,-0.13333333,0,668.30667)" />
      <path
         id="path136"
         d="m -0.515375,1.558375 h 2.1679687 l 5.15625,-14.707031 H 4.640875 Z m 0,0"
         style="fill:#f78f45;fill-opacity:1;fill-rule:nonzero;stroke:none"
         aria-label="/"
         transform="matrix(1.3333333,0,0,1.3333333,339.87467,403.73467)" />
      <path
         id="path137"
         d="m 1462.25,3813.47 v -23.63 l -86.48,-32.88 v 22.71 l 60.5,21.98 -60.5,22.17 v 22.53 l 86.48,-32.88"
         style="fill:#f78f45;fill-opacity:1;fill-rule:nonzero;stroke:none"
         transform="matrix(0.13333333,0,0,-0.13333333,0,668.30667)" />
      <path
         id="path138"
         d="m 1303.22,3846.35 v -22.53 l -60.51,-22.17 60.51,-21.98 v -22.71 l -86.49,32.88 v 23.63 l 86.49,32.88"
         style="fill:#f78f45;fill-opacity:1;fill-rule:nonzero;stroke:none"
         transform="matrix(0.13333333,0,0,-0.13333333,0,668.30667)" />
      <path
         id="path139"
         d="m 13.639164,-9.6904531 -2.25,6.8671875 -2.2148437,-6.8671875 H 7.1001016 L 4.8149453,-2.8818594 2.6235391,-9.6904531 H 0.30322656 L 3.4907266,9.53125e-4 h 2.390625 L 8.0844766,-6.5615469 10.217289,9.53125e-4 h 2.402344 L 15.795414,-9.6904531 Z m 5.62793,7.8867187 v -2.2382812 h 4.5 v -1.7460938 h -4.5 V -7.8857656 H 24.36475 V -9.6904531 H 17.040531 V 9.53125e-4 h 7.5 V -1.8037344 Z m 14.176758,-3.234375 c 0.785156,-0.4101562 1.289062,-1.1601562 1.289062,-2.1328125 0,-1.5 -1.242187,-2.5195312 -3.667969,-2.5195312 H 26.33057 V 9.53125e-4 h 5.015625 c 2.542969,0 3.867188,-0.972656245 3.867188,-2.648437525 0,-1.2070312 -0.691406,-2.0390625 -1.769531,-2.390625 z m -2.660157,-2.9648437 c 1.101563,0 1.6875,0.375 1.6875,1.1367187 0,0.7617188 -0.585937,1.1484375 -1.6875,1.1484375 h -2.226562 v -2.2851562 z m 0.386719,6.3164062 h -2.613281 v -2.390625 h 2.613281 c 1.171875,0 1.792969,0.3867188 1.792969,1.1953125 0,0.8320313 -0.621094,1.1953125 -1.792969,1.1953125 z m 9.667969,1.687500025 h 4.40625 c 3.164062,0 5.332031,-1.910156225 5.332031,-4.839843725 0,-2.9414063 -2.167969,-4.8515625 -5.332031,-4.8515625 h -4.40625 z M 43.076664,-1.8388906 v -6.0117188 h 2.050781 c 1.921875,0 3.1875,1.1484375 3.1875,3.0117188 0,1.8515625 -1.265625,3 -3.1875,3 z m 11.422852,0.035156 v -2.2382812 h 4.5 v -1.7460938 h -4.5 v -2.0976562 h 5.097656 V -9.6904531 H 52.272953 V 9.53125e-4 h 7.5 V -1.8037344 Z m 14.015625,-7.8867187 -2.988282,6.9257812 -2.953125,-6.9257812 h -2.425781 l 4.183594,9.691406225 h 2.214844 L 70.741703,-9.6904531 Z M 73.771,-1.8037344 v -2.2382812 h 4.5 v -1.7460938 h -4.5 v -2.0976562 h 5.097656 V -9.6904531 H 71.544437 V 9.53125e-4 h 7.5 V -1.8037344 Z m 7.060547,1.804687525 h 7.101562 V -1.8271719 H 83.069828 V -9.6904531 H 80.831547 Z M 93.716312,0.16501563 c 3.046875,0 5.308594,-2.12109373 5.308594,-5.00390623 0,-2.8945313 -2.261719,-5.015625 -5.308594,-5.015625 -3.058593,0 -5.296875,2.1328125 -5.296875,5.015625 0,2.8710937 2.238282,5.00390623 5.296875,5.00390623 z m 0,-1.91015623 c -1.722656,0 -3.023437,-1.2539063 -3.023437,-3.09375 0,-1.8398438 1.300781,-3.1054688 3.023437,-3.1054688 1.734375,0 3.035157,1.265625 3.035157,3.1054688 0,1.8398437 -1.300782,3.09375 -3.035157,3.09375 z m 11.191408,-7.9453125 h -4.19531 V 9.53125e-4 h 2.23828 V -2.6709219 h 1.95703 c 2.58984,0 4.20703,-1.3359375 4.20703,-3.5039062 0,-2.1679688 -1.61719,-3.515625 -4.20703,-3.515625 z m -0.12891,5.1914062 h -1.82812 v -3.3632812 h 1.82812 c 1.3711,0 2.0625,0.6210937 2.0625,1.6875 0,1.0546875 -0.6914,1.6757812 -2.0625,1.6757812 z m 5.92969,4.500000025 h 2.23828 V -9.6904531 H 110.7085 Z M 121.91748,-9.6904531 v 5.8828125 l -4.8164,-5.8828125 h -1.85156 V 9.53125e-4 h 2.21484 V -5.8818594 l 4.82812,5.882812525 h 1.83985 V -9.6904531 Z m 11.06836,7.5351562 c -0.57421,0.3046875 -1.13671,0.4101563 -1.74609,0.4101563 -1.85156,0 -3.14062,-1.2890625 -3.14062,-3.09375 0,-1.8398438 1.28906,-3.1054688 3.16406,-3.1054688 0.98437,0 1.80469,0.3515625 2.50781,1.0898438 l 1.44141,-1.3242188 c -0.94922,-1.0898437 -2.35547,-1.6757812 -4.05469,-1.6757812 -3.09375,0 -5.33203,2.0859375 -5.33203,5.015625 0,2.9179687 2.23828,5.00390623 5.28515,5.00390623 1.38282,0 2.84766,-0.421875 3.91407,-1.23046873 v -3.9257813 h -2.03907 z m 0,0"
         style="fill:#ffffff;fill-opacity:1;fill-rule:nonzero;stroke:none"
         aria-label="WEB DEVELOPING"
         transform="matrix(1.3333333,0,0,1.3333333,149.63867,123.83467)" />
      <path
         id="path140"
         d="m 1905.55,3512.92 h -566.87 v 103.81 h 566.87 v -103.81"
         style="fill:#37bdcf;fill-opacity:1;fill-rule:nonzero;stroke:none"
         transform="matrix(0.13333333,0,0,-0.13333333,0,668.30667)" />
      <path
         id="path141"
         d="m 2268.86,3512.92 h -283.44 v 103.81 h 283.44 v -103.81"
         style="fill:#f78f45;fill-opacity:1;fill-rule:nonzero;stroke:none"
         transform="matrix(0.13333333,0,0,-0.13333333,0,668.30667)" />
      <path
         id="path142"
         d="m 2724.52,3512.92 h -390.38 v 103.81 h 390.38 v -103.81"
         style="fill:#ffffff;fill-opacity:1;fill-rule:nonzero;stroke:none"
         transform="matrix(0.13333333,0,0,-0.13333333,0,668.30667)" />
      <path
         id="path143"
         d="m 1603.25,3327.58 h -264.57 v 103.81 h 264.57 v -103.81"
         style="fill:#37bdcf;fill-opacity:1;fill-rule:nonzero;stroke:none"
         transform="matrix(0.13333333,0,0,-0.13333333,0,668.30667)" />
      <path
         id="path144"
         d="m 2127.14,3327.58 h -451.9 v 103.81 h 451.9 v -103.81"
         style="fill:#f78f45;fill-opacity:1;fill-rule:nonzero;stroke:none"
         transform="matrix(0.13333333,0,0,-0.13333333,0,668.30667)" />
      <path
         id="path145"
         d="m 2724.52,3327.58 h -523.74 v 103.81 h 523.74 v -103.81"
         style="fill:#ffffff;fill-opacity:1;fill-rule:nonzero;stroke:none"
         transform="matrix(0.13333333,0,0,-0.13333333,0,668.30667)" />
      <path
         id="path146"
         d="m 1686.94,3142.24 h -348.26 v 103.81 h 348.26 v -103.81"
         style="fill:#37bdcf;fill-opacity:1;fill-rule:nonzero;stroke:none"
         transform="matrix(0.13333333,0,0,-0.13333333,0,668.30667)" />
      <path
         id="path147"
         d="m 2398.75,3142.24 h -655.12 v 103.81 h 655.12 v -103.81"
         style="fill:#f78f45;fill-opacity:1;fill-rule:nonzero;stroke:none"
         transform="matrix(0.13333333,0,0,-0.13333333,0,668.30667)" />
      <path
         id="path148"
         d="m 2724.52,3142.24 h -255.57 v 103.81 h 255.57 v -103.81"
         style="fill:#ffffff;fill-opacity:1;fill-rule:nonzero;stroke:none"
         transform="matrix(0.13333333,0,0,-0.13333333,0,668.30667)" />
      <path
         id="path149"
         d="m 1777.83,2956.9 h -439.15 v 103.81 h 439.15 V 2956.9"
         style="fill:#37bdcf;fill-opacity:1;fill-rule:nonzero;stroke:none"
         transform="matrix(0.13333333,0,0,-0.13333333,0,668.30667)" />
      <path
         id="path150"
         d="m 2268.86,2956.9 h -426.24 v 103.81 h 426.24 V 2956.9"
         style="fill:#f78f45;fill-opacity:1;fill-rule:nonzero;stroke:none"
         transform="matrix(0.13333333,0,0,-0.13333333,0,668.30667)" />
      <path
         id="path151"
         d="m 2724.52,2956.9 h -390.38 v 103.81 h 390.38 V 2956.9"
         style="fill:#ffffff;fill-opacity:1;fill-rule:nonzero;stroke:none"
         transform="matrix(0.13333333,0,0,-0.13333333,0,668.30667)" />
      <path
         id="path152"
         d="m 1531.25,2771.56 h -192.57 v 103.81 h 192.57 v -103.81"
         style="fill:#37bdcf;fill-opacity:1;fill-rule:nonzero;stroke:none"
         transform="matrix(0.13333333,0,0,-0.13333333,0,668.30667)" />
      <path
         id="path153"
         d="m 1977.6,2771.56 h -381.55 v 103.81 h 381.55 v -103.81"
         style="fill:#f78f45;fill-opacity:1;fill-rule:nonzero;stroke:none"
         transform="matrix(0.13333333,0,0,-0.13333333,0,668.30667)" />
      <path
         id="path154"
         d="M 2724.52,2771.56 H 2037 v 103.81 h 687.52 v -103.81"
         style="fill:#ffffff;fill-opacity:1;fill-rule:nonzero;stroke:none"
         transform="matrix(0.13333333,0,0,-0.13333333,0,668.30667)" />
      <path
         id="path155"
         d="m 1889.41,2586.22 h -550.73 v 103.81 h 550.73 v -103.81"
         style="fill:#37bdcf;fill-opacity:1;fill-rule:nonzero;stroke:none"
         transform="matrix(0.13333333,0,0,-0.13333333,0,668.30667)" />
      <path
         id="path156"
         d="m 2127.14,2586.22 h -169.33 v 103.81 h 169.33 v -103.81"
         style="fill:#f78f45;fill-opacity:1;fill-rule:nonzero;stroke:none"
         transform="matrix(0.13333333,0,0,-0.13333333,0,668.30667)" />
      <path
         id="path157"
         d="m 2724.52,2586.22 h -523.74 v 103.81 h 523.74 v -103.81"
         style="fill:#ffffff;fill-opacity:1;fill-rule:nonzero;stroke:none"
         transform="matrix(0.13333333,0,0,-0.13333333,0,668.30667)" />
      <path
         id="path158"
         d="m 2055.74,2400.87 h -717.06 v 103.82 h 717.06 v -103.82"
         style="fill:#37bdcf;fill-opacity:1;fill-rule:nonzero;stroke:none"
         transform="matrix(0.13333333,0,0,-0.13333333,0,668.30667)" />
      <path
         id="path159"
         d="m 2409.55,2400.87 h -293.36 v 103.82 h 293.36 v -103.82"
         style="fill:#f78f45;fill-opacity:1;fill-rule:nonzero;stroke:none"
         transform="matrix(0.13333333,0,0,-0.13333333,0,668.30667)" />
      <path
         id="path160"
         d="m 2724.52,2400.87 h -255.57 v 103.82 h 255.57 v -103.82"
         style="fill:#ffffff;fill-opacity:1;fill-rule:nonzero;stroke:none"
         transform="matrix(0.13333333,0,0,-0.13333333,0,668.30667)" />
      <path
         id="path161"
         d="m 1558.25,2215.54 h -219.57 v 103.81 h 219.57 v -103.81"
         style="fill:#37bdcf;fill-opacity:1;fill-rule:nonzero;stroke:none"
         transform="matrix(0.13333333,0,0,-0.13333333,0,668.30667)" />
      <path
         id="path162"
         d="m 1889.41,2215.54 h -267.3 v 103.81 h 267.3 v -103.81"
         style="fill:#f78f45;fill-opacity:1;fill-rule:nonzero;stroke:none"
         transform="matrix(0.13333333,0,0,-0.13333333,0,668.30667)" />
      <path
         id="path163"
         d="m 2724.52,2215.54 h -766.71 v 103.81 h 766.71 v -103.81"
         style="fill:#ffffff;fill-opacity:1;fill-rule:nonzero;stroke:none"
         transform="matrix(0.13333333,0,0,-0.13333333,0,668.30667)" />
      <path
         id="path164"
         d="m 2821.44,2215.54 h -21.12 v 1401.19 h 21.12 V 2215.54"
         style="fill:#ffffff;fill-opacity:1;fill-rule:nonzero;stroke:none"
         transform="matrix(0.13333333,0,0,-0.13333333,0,668.30667)" />
      <path
         id="path165"
         d="m 1212.32,3564.82 c 0,-28.66 -23.24,-51.9 -51.9,-51.9 -28.67,0 -51.91,23.24 -51.91,51.9 0,28.67 23.24,51.91 51.91,51.91 28.66,0 51.9,-23.24 51.9,-51.91"
         style="fill:#ffffff;fill-opacity:1;fill-rule:nonzero;stroke:none"
         transform="matrix(0.13333333,0,0,-0.13333333,0,668.30667)" />
      <path
         id="path166"
         d="m 1212.32,3379.49 c 0,-28.67 -23.24,-51.91 -51.9,-51.91 -28.67,0 -51.91,23.24 -51.91,51.91 0,28.66 23.24,51.9 51.91,51.9 28.66,0 51.9,-23.24 51.9,-51.9"
         style="fill:#ffffff;fill-opacity:1;fill-rule:nonzero;stroke:none"
         transform="matrix(0.13333333,0,0,-0.13333333,0,668.30667)" />
      <path
         id="path167"
         d="m 1212.32,3194.14 c 0,-28.66 -23.24,-51.9 -51.9,-51.9 -28.67,0 -51.91,23.24 -51.91,51.9 0,28.67 23.24,51.91 51.91,51.91 28.66,0 51.9,-23.24 51.9,-51.91"
         style="fill:#ffffff;fill-opacity:1;fill-rule:nonzero;stroke:none"
         transform="matrix(0.13333333,0,0,-0.13333333,0,668.30667)" />
      <path
         id="path168"
         d="m 1212.32,3008.8 c 0,-28.66 -23.24,-51.9 -51.9,-51.9 -28.67,0 -51.91,23.24 -51.91,51.9 0,28.68 23.24,51.91 51.91,51.91 28.66,0 51.9,-23.23 51.9,-51.91"
         style="fill:#ffffff;fill-opacity:1;fill-rule:nonzero;stroke:none"
         transform="matrix(0.13333333,0,0,-0.13333333,0,668.30667)" />
      <path
         id="path169"
         d="m 1212.32,2823.47 c 0,-28.67 -23.24,-51.91 -51.9,-51.91 -28.67,0 -51.91,23.24 -51.91,51.91 0,28.66 23.24,51.9 51.91,51.9 28.66,0 51.9,-23.24 51.9,-51.9"
         style="fill:#ffffff;fill-opacity:1;fill-rule:nonzero;stroke:none"
         transform="matrix(0.13333333,0,0,-0.13333333,0,668.30667)" />
      <path
         id="path170"
         d="m 1212.32,2638.12 c 0,-28.66 -23.24,-51.9 -51.9,-51.9 -28.67,0 -51.91,23.24 -51.91,51.9 0,28.67 23.24,51.91 51.91,51.91 28.66,0 51.9,-23.24 51.9,-51.91"
         style="fill:#ffffff;fill-opacity:1;fill-rule:nonzero;stroke:none"
         transform="matrix(0.13333333,0,0,-0.13333333,0,668.30667)" />
      <path
         id="path171"
         d="m 1212.32,2452.79 c 0,-28.67 -23.24,-51.92 -51.9,-51.92 -28.67,0 -51.91,23.25 -51.91,51.92 0,28.66 23.24,51.9 51.91,51.9 28.66,0 51.9,-23.24 51.9,-51.9"
         style="fill:#ffffff;fill-opacity:1;fill-rule:nonzero;stroke:none"
         transform="matrix(0.13333333,0,0,-0.13333333,0,668.30667)" />
      <path
         id="path172"
         d="m 1212.32,2267.45 c 0,-28.68 -23.24,-51.91 -51.9,-51.91 -28.67,0 -51.91,23.23 -51.91,51.91 0,28.66 23.24,51.9 51.91,51.9 28.66,0 51.9,-23.24 51.9,-51.9"
         style="fill:#ffffff;fill-opacity:1;fill-rule:nonzero;stroke:none"
         transform="matrix(0.13333333,0,0,-0.13333333,0,668.30667)" />
      <path
         id="path173"
         d="m 2847.86,4129.3 c 0,-29.24 -23.7,-52.94 -52.94,-52.94 -29.25,0 -52.95,23.7 -52.95,52.94 0,29.24 23.7,52.94 52.95,52.94 29.24,0 52.94,-23.7 52.94,-52.94"
         style="fill:#d82b62;fill-opacity:1;fill-rule:nonzero;stroke:none"
         transform="matrix(0.13333333,0,0,-0.13333333,0,668.30667)" />
      <path
         id="path174"
         d="m 2716.99,4130.37 c 0,-29.47 -23.88,-53.35 -53.34,-53.35 -29.47,0 -53.35,23.88 -53.35,53.35 0,29.45 23.88,53.34 53.35,53.34 29.46,0 53.34,-23.89 53.34,-53.34"
         style="fill:#ffffff;fill-opacity:1;fill-rule:nonzero;stroke:none"
         transform="matrix(0.13333333,0,0,-0.13333333,0,668.30667)" />
      <path
         id="path175"
         d="m 3377.24,3856.61 h -186.82 v 52.34 h 186.82 v -52.34"
         style="fill:#3c5282;fill-opacity:1;fill-rule:nonzero;stroke:none"
         transform="matrix(0.13333333,0,0,-0.13333333,0,668.30667)" />
      <path
         id="path176"
         d="m 3761.95,3949.8 h -571.53 v 52.34 h 571.53 v -52.34"
         style="fill:#5c5e94;fill-opacity:1;fill-rule:nonzero;stroke:none"
         transform="matrix(0.13333333,0,0,-0.13333333,0,668.30667)" />
      <path
         id="path177"
         d="m 3515.62,3826.64 h 10 v 20 h -10 z"
         style="fill:#f36241;fill-opacity:1;fill-rule:nonzero;stroke:none"
         transform="matrix(0.13333333,0,0,-0.13333333,0,668.30667)" />
      <path
         id="path178"
         d="m 3515.62,3759.12 h 10 v 33.7578 h -10 z m 0,-67.53 h 10 v 33.7695 h -10 z"
         style="fill:#f36241;fill-opacity:1;fill-rule:nonzero;stroke:none"
         transform="matrix(0.13333333,0,0,-0.13333333,0,668.30667)" />
      <path
         id="path179"
         d="m 3515.62,3657.83 v -25 h 25 v 10 h -15 v 15 h -10"
         style="fill:#f36241;fill-opacity:1;fill-rule:nonzero;stroke:none"
         transform="matrix(0.13333333,0,0,-0.13333333,0,668.30667)" />
      <path
         id="path180"
         d="m 3578.71,3632.83 h 38.0898 v 10 H 3578.71 Z m 76.18,0 h 38.0898 v 10 H 3654.89 Z m 76.18,0 h 38.1016 v 10 H 3731.07 Z m 76.19,0 h 38.0898 v 10 H 3807.26 Z m 76.18,0 h 38.0898 v 10 H 3883.44 Z m 76.18,0 h 38.0898 v 10 H 3959.62 Z m 76.18,0 h 38.0898 v 10 H 4035.8 Z m 76.18,0 h 38.0898 v 10 H 4111.98 Z"
         style="fill:#f36241;fill-opacity:1;fill-rule:nonzero;stroke:none"
         transform="matrix(0.13333333,0,0,-0.13333333,0,668.30667)" />
      <path
         id="path181"
         d="m 4188.16,3632.83 h 25 v 25 h -10 v -15 h -15 v -10"
         style="fill:#f36241;fill-opacity:1;fill-rule:nonzero;stroke:none"
         transform="matrix(0.13333333,0,0,-0.13333333,0,668.30667)" />
      <path
         id="path182"
         d="m 4203.16,3698.4 h 10 v 40.5703 h -10 z"
         style="fill:#f36241;fill-opacity:1;fill-rule:nonzero;stroke:none"
         transform="matrix(0.13333333,0,0,-0.13333333,0,668.30667)" />
      <path
         id="path183"
         d="m 4203.16,3779.54 h 10 v 20 h -10 z"
         style="fill:#f36241;fill-opacity:1;fill-rule:nonzero;stroke:none"
         transform="matrix(0.13333333,0,0,-0.13333333,0,668.30667)" />
      <path
         id="path184"
         d="m 7.723625,0.29332812 c 2.519531,0 4.511719,-0.9140625 5.777344,-2.57812502 l -2.742188,-2.4492187 c -0.75,0.9609375 -1.6523435,1.5117187 -2.8124998,1.5117187 -1.8164062,0 -3.0234375,-1.2539062 -3.0234375,-3.2226562 0,-1.96875 1.2070313,-3.2226563 3.0234375,-3.2226563 1.1601563,0 2.0624998,0.5507813 2.8124998,1.5117188 l 2.742188,-2.4492184 c -1.265625,-1.664063 -3.257813,-2.589844 -5.777344,-2.589844 -4.1484375,0 -7.18359375,2.789062 -7.18359375,6.7499999 0,3.9609375 3.03515625,6.73828122 7.18359375,6.73828122 z m 11.660156,0 c 3.996094,0 6,-1.99218752 6,-4.34765622 0,-4.7460938 -7.125,-3.4570313 -7.125,-5.0039063 0,-0.4453125 0.410156,-0.8203125 1.675781,-0.8203125 1.125,0 2.320313,0.3164063 3.597657,0.9609375 L 24.833,-12.069953 c -1.347656,-0.75 -3.128906,-1.125 -4.863281,-1.125 -3.996094,0 -6,1.957031 -6,4.3476561 0,4.8164063 7.125,3.5039063 7.125,5.1210938 0,0.4453125 -0.445313,0.703125 -1.675782,0.703125 -1.417968,0 -3.035156,-0.4570313 -4.253906,-1.171875 l -1.40625,3.1640625 c 1.289063,0.79687497 3.46875,1.32421872 5.625,1.32421872 z m 12.105469,0 c 3.996094,0 6,-1.99218752 6,-4.34765622 0,-4.7460938 -7.125,-3.4570313 -7.125,-5.0039063 0,-0.4453125 0.410156,-0.8203125 1.675781,-0.8203125 1.125,0 2.320313,0.3164063 3.597656,0.9609375 l 1.300782,-3.1523436 c -1.347657,-0.75 -3.128907,-1.125 -4.863282,-1.125 -3.996093,0 -6,1.957031 -6,4.3476561 0,4.8164063 7.125,3.5039063 7.125,5.1210938 0,0.4453125 -0.445312,0.703125 -1.675781,0.703125 -1.417969,0 -3.035156,-0.4570313 -4.253906,-1.171875 l -1.40625,3.1640625 c 1.289062,0.79687497 3.46875,1.32421872 5.625,1.32421872 z m 0,0"
         style="fill:#ffffff;fill-opacity:1;fill-rule:nonzero;stroke:none"
         aria-label="CSS"
         transform="matrix(1.3333333,0,0,1.3333333,425.38933,116.25733)" />
      <path
         id="path185"
         d="m 4252.77,3868.56 c -55.15,-24.56 -120.01,0.28 -144.57,55.43 -2.01,4.51 -3.67,9.09 -5.06,13.73 -8.53,28.86 -4.44,59.31 9.64,84.35 l 0.35,0.7 c 11.1,19.56 28.31,35.93 50.43,45.78 4.16,1.81 8.32,3.4 12.62,4.65 l 1.32,0.42 c 21.92,6.45 44.61,5.61 65.28,-1.25 l 0.21,-0.07 c 17.68,-5.97 33.86,-16.44 46.61,-30.6 7.5,-8.25 13.74,-17.82 18.53,-28.57 2.98,-6.66 5.2,-13.46 6.79,-20.26 4.24,-18.59 3.4,-37.53 -1.79,-55.15 -8.68,-29.76 -29.91,-55.56 -60.36,-69.16 z m 106.9,144.15 c -1.95,6.8 -4.45,13.52 -7.36,20.12 -8.32,18.59 -19.77,34.82 -33.5,48.28 -13.04,12.76 -28.17,23.1 -44.46,30.59 l -0.91,0.41 c -23.03,10.48 -48.42,15.41 -74.08,14.02 -17.55,-0.97 -35.25,-4.93 -52.31,-12.07 -1.03,-0.49 -2.15,-0.9 -3.19,-1.39 -30.59,-13.67 -54.73,-35.87 -70.75,-62.64 -19.98,-33.15 -27.54,-73.18 -19.71,-112.31 2.23,-11.3 5.76,-22.47 10.61,-33.43 35.45,-79.5 128.96,-115.3 208.39,-79.85 48.49,21.65 80.74,64.79 90.46,113.28 4.92,24.35 4.09,50.02 -3.19,74.99"
         style="fill:#5c5e94;fill-opacity:1;fill-rule:nonzero;stroke:none"
         transform="matrix(0.13333333,0,0,-0.13333333,0,668.30667)" />
      <path
         id="path186"
         d="m 4362.86,3937.72 h -49.73 c 5.19,17.62 6.03,36.56 1.79,55.15 -1.59,6.8 -3.81,13.6 -6.79,20.26 -4.79,10.75 -11.03,20.32 -18.53,28.57 -12.75,14.16 -28.93,24.63 -46.61,30.6 l -0.21,0.07 c -20.67,6.86 -43.36,7.7 -65.28,1.25 l -1.32,-0.42 c -4.3,-1.25 -8.46,-2.84 -12.62,-4.65 -22.12,-9.85 -39.33,-26.22 -50.43,-45.78 l -0.35,-0.7 c -14.08,-25.04 -18.17,-55.49 -9.64,-84.35 h -49.74 c -7.83,39.13 -0.27,79.16 19.71,112.31 16.02,26.77 40.16,48.97 70.75,62.64 1.04,0.49 2.16,0.9 3.19,1.39 17.06,7.14 34.76,11.1 52.31,12.07 25.66,1.39 51.05,-3.54 74.08,-14.02 l 0.91,-0.41 c 16.29,-7.49 31.42,-17.83 44.46,-30.59 13.73,-13.46 25.18,-29.69 33.5,-48.28 2.91,-6.6 5.41,-13.32 7.36,-20.12 7.28,-24.97 8.11,-50.64 3.19,-74.99"
         style="fill:#d82b62;fill-opacity:1;fill-rule:nonzero;stroke:none"
         transform="matrix(0.13333333,0,0,-0.13333333,0,668.30667)" />
      <path
         id="path187"
         d="m 3761.95,3856.61 h -347.27 v 52.34 h 347.27 v -52.34"
         style="fill:#5c5e94;fill-opacity:1;fill-rule:nonzero;stroke:none"
         transform="matrix(0.13333333,0,0,-0.13333333,0,668.30667)" />
      <path
         id="path188"
         d="m 9.1627422,-10.781227 v -2.507812 c 0,-1.160156 0.6328125,-1.816406 1.8749998,-1.816406 h 0.269531 v -4.488282 H 9.3502422 c -4.0898438,0 -6.1523438,2.050782 -6.1523438,5.625 v 3.328125 c 0,0.7851567 -0.4804687,1.1601567 -1.1367187,1.1601567 H 1.1822734 v 4.4882812 h 0.8789063 c 0.65625,0 1.1367187,0.375 1.1367187,1.1601563 v 3.32812499 c 0,3.56250001 2.0625,5.62500001 6.1523438,5.62500001 H 11.307273 V 0.63283594 h -0.269531 c -1.2421873,0 -1.8749998,-0.65625 -1.8749998,-1.81640624 v -2.5195313 c 0,-2.109375 -0.65625,-3.0820312 -2.1328125,-3.5390625 1.4765625,-0.4453125 2.1328125,-1.4179687 2.1328125,-3.5390629 z m 19.8310548,1.3007817 c -0.65625,0 -1.125,-0.375 -1.125,-1.1601567 v -3.328125 c 0,-3.574218 -2.0625,-5.625 -6.164063,-5.625 h -1.945312 v 4.488282 h 0.257812 c 1.242188,0 1.875,0.65625 1.875,1.816406 v 2.507812 c 0,2.1210942 0.65625,3.0937504 2.144532,3.5390629 -1.488282,0.4570313 -2.144532,1.4296875 -2.144532,3.5390625 v 2.5195313 c 0,1.16015624 -0.632812,1.81640624 -1.875,1.81640624 H 19.759422 V 5.1211172 h 1.945312 c 4.101563,0 6.164063,-2.0625 6.164063,-5.62500001 V -3.8320078 c 0,-0.7851563 0.46875,-1.1601563 1.125,-1.1601563 h 0.878906 v -4.4882812 z m 0,0"
         style="fill:#262a41;fill-opacity:1;fill-rule:nonzero;stroke:none"
         aria-label="{ }"
         transform="matrix(1.3333333,0,0,1.3333333,64.880667,125.832)" />
      <path
         id="path189"
         d="M 690.535,3674.79 H 485.141 v 98.02 h 205.394 v -98.02"
         style="fill:#ffffff;fill-opacity:1;fill-rule:nonzero;stroke:none"
         transform="matrix(0.13333333,0,0,-0.13333333,0,668.30667)" />
      <path
         id="path190"
         d="M 690.535,3503.55 H 485.141 v 98.02 h 205.394 v -98.02"
         style="fill:#ffffff;fill-opacity:1;fill-rule:nonzero;stroke:none"
         transform="matrix(0.13333333,0,0,-0.13333333,0,668.30667)" />
      <path
         id="path191"
         d="M 690.535,3332.3 H 485.141 v 98.02 h 205.394 v -98.02"
         style="fill:#f78f45;fill-opacity:1;fill-rule:nonzero;stroke:none"
         transform="matrix(0.13333333,0,0,-0.13333333,0,668.30667)" />
      <path
         id="path192"
         d="M 690.535,3161.05 H 485.141 v 98.02 h 205.394 v -98.02"
         style="fill:#f78f45;fill-opacity:1;fill-rule:nonzero;stroke:none"
         transform="matrix(0.13333333,0,0,-0.13333333,0,668.30667)" />
      <path
         id="path193"
         d="M 690.535,2989.8 H 485.141 v 98.02 h 205.394 v -98.02"
         style="fill:#f78f45;fill-opacity:1;fill-rule:nonzero;stroke:none"
         transform="matrix(0.13333333,0,0,-0.13333333,0,668.30667)" />
      <path
         id="path194"
         d="M 690.535,2818.55 H 485.141 v 98.02 h 205.394 v -98.02"
         style="fill:#f78f45;fill-opacity:1;fill-rule:nonzero;stroke:none"
         transform="matrix(0.13333333,0,0,-0.13333333,0,668.30667)" />
      <path
         id="path195"
         d="M 690.535,2647.31 H 485.141 v 98.02 h 205.394 v -98.02"
         style="fill:#f78f45;fill-opacity:1;fill-rule:nonzero;stroke:none"
         transform="matrix(0.13333333,0,0,-0.13333333,0,668.30667)" />
      <path
         id="path196"
         d="m 6347.45,1776.86 c -38.98,0 -70.57,31.59 -70.57,70.58 0,38.97 31.59,70.56 70.57,70.56 38.98,0 70.57,-31.59 70.57,-70.56 0,-38.99 -31.59,-70.58 -70.57,-70.58 z m 147.46,68.53 0.09,2.05 -0.09,1.95 c 10.24,4.72 20.56,10.15 30.71,16.73 10.85,7.48 21.89,16.11 32.12,25.99 l -2.22,8.72 c -2.14,9.88 -5.96,19.4 -9.44,28.92 -1.96,4.63 -4.26,9.17 -6.49,13.71 -2.05,4.72 -4.54,9.07 -7.3,13.35 l -4.62,7.66 c -13.98,-0.1 -28.13,-1.88 -41.04,-4.28 -11.65,-2.4 -22.95,-5.87 -33.46,-9.87 l -2.85,2.84 c 3.92,10.59 7.48,21.81 9.8,33.47 2.49,12.9 4.26,27.05 4.35,41.02 l -7.64,4.63 c -4.28,2.75 -8.72,5.24 -13.35,7.29 -4.54,2.23 -9.09,4.55 -13.8,6.5 -9.52,3.48 -18.96,7.3 -28.83,9.43 l -8.72,2.23 c -9.88,-10.24 -18.52,-21.18 -26,-32.13 -6.58,-10.06 -12.01,-20.38 -16.73,-30.7 l -1.95,0.17 -2.05,-0.17 c -4.63,10.32 -10.15,20.64 -16.73,30.7 -7.38,10.95 -16.1,21.89 -25.9,32.13 l -8.72,-2.23 c -9.97,-2.13 -19.4,-5.95 -28.92,-9.43 -4.63,-1.95 -9.17,-4.27 -13.8,-6.5 -4.62,-2.05 -8.99,-4.54 -13.35,-7.29 l -7.65,-4.63 c 0.18,-13.97 1.96,-28.12 4.37,-41.02 2.39,-11.66 5.87,-22.88 9.87,-33.47 -0.98,-0.98 -1.96,-1.87 -2.84,-2.84 -10.6,4 -21.81,7.47 -33.47,9.87 -12.9,2.4 -27.15,4.18 -41.02,4.28 l -4.72,-7.66 c -2.68,-4.28 -5.17,-8.63 -7.3,-13.35 -2.13,-4.54 -4.45,-9.08 -6.41,-13.71 -3.56,-9.52 -7.3,-19.04 -9.43,-28.92 l -2.22,-8.72 c 10.23,-9.88 21.18,-18.51 32.12,-25.99 10.06,-6.58 20.38,-12.01 30.61,-16.73 l -0.09,-1.95 0.09,-2.05 c -10.23,-4.63 -20.55,-10.15 -30.61,-16.73 -10.94,-7.39 -21.89,-16.11 -32.12,-25.9 l 2.22,-8.72 c 2.13,-9.89 5.87,-19.41 9.43,-28.93 1.96,-4.63 4.28,-9.16 6.41,-13.79 2.13,-4.63 4.62,-8.99 7.3,-13.26 l 4.72,-7.66 c 13.87,0.09 28.12,1.88 41.02,4.28 11.66,2.4 22.87,5.87 33.47,9.88 0.88,-0.98 1.86,-1.96 2.84,-2.86 -4,-10.58 -7.48,-21.79 -9.87,-33.45 -2.41,-12.9 -4.19,-27.14 -4.37,-41.03 l 7.65,-4.72 c 4.36,-2.66 8.73,-5.16 13.35,-7.2 4.63,-2.23 9.17,-4.54 13.8,-6.51 9.52,-3.55 18.95,-7.29 28.92,-9.42 l 8.72,-2.23 c 9.8,10.24 18.52,21.18 25.9,32.13 6.58,10.05 12.1,20.38 16.73,30.7 l 2.05,-0.18 1.95,0.18 c 4.72,-10.32 10.15,-20.65 16.73,-30.7 7.48,-10.95 16.12,-21.89 26,-32.13 l 8.72,2.23 c 9.87,2.13 19.31,5.87 28.83,9.42 4.71,1.97 9.26,4.28 13.8,6.51 4.63,2.04 9.07,4.54 13.35,7.2 l 7.64,4.72 c -0.09,13.89 -1.86,28.13 -4.35,41.03 -2.32,11.66 -5.88,22.87 -9.8,33.45 0.99,0.9 1.88,1.88 2.85,2.86 10.51,-4.01 21.81,-7.48 33.46,-9.88 12.91,-2.4 27.06,-4.19 41.04,-4.28 l 4.62,7.66 c 2.76,4.27 5.25,8.63 7.3,13.26 2.23,4.63 4.53,9.16 6.49,13.79 3.48,9.52 7.3,19.04 9.44,28.93 l 2.22,8.72 c -10.23,9.79 -21.27,18.51 -32.12,25.9 -10.15,6.58 -20.47,12.1 -30.71,16.73"
         style="fill:#262a41;fill-opacity:1;fill-rule:nonzero;stroke:none"
         transform="matrix(0.13333333,0,0,-0.13333333,0,668.30667)" />
      <path
         id="path197"
         d="m 5846.39,1687.8 h -93.18 v 419.68 h 93.18 V 1687.8"
         style="fill:#d82b62;fill-opacity:1;fill-rule:nonzero;stroke:none"
         transform="matrix(0.13333333,0,0,-0.13333333,0,668.30667)" />
      <path
         id="path198"
         d="m 5715.64,1687.8 h -99.88 v 234.76 h 99.88 V 1687.8"
         style="fill:#5c5e94;fill-opacity:1;fill-rule:nonzero;stroke:none"
         transform="matrix(0.13333333,0,0,-0.13333333,0,668.30667)" />
      <path
         id="path199"
         d="m 5577.29,1687.8 h -99.89 v 159.64 h 99.89 V 1687.8"
         style="fill:#f36241;fill-opacity:1;fill-rule:nonzero;stroke:none"
         transform="matrix(0.13333333,0,0,-0.13333333,0,668.30667)" />
      <path
         id="path200"
         d="m 5439.74,1749.65 h 20 v 10 h -20 z"
         style="fill:#f36241;fill-opacity:1;fill-rule:nonzero;stroke:none"
         transform="matrix(0.13333333,0,0,-0.13333333,0,668.30667)" />
      <path
         id="path201"
         d="m 5338.31,1749.65 h 50.7109 v 10 H 5338.31 Z"
         style="fill:#f36241;fill-opacity:1;fill-rule:nonzero;stroke:none"
         transform="matrix(0.13333333,0,0,-0.13333333,0,668.30667)" />
      <path
         id="path202"
         d="m 5287.61,1759.65 h -25 v -25 h 10 v 15 h 15 v 10"
         style="fill:#f36241;fill-opacity:1;fill-rule:nonzero;stroke:none"
         transform="matrix(0.13333333,0,0,-0.13333333,0,668.30667)" />
      <path
         id="path203"
         d="m 5262.61,1659.84 h 10 v 37.4023 h -10 z m 0,-74.81 h 10 v 37.3984 h -10 z m 0,-74.81 h 10 v 37.4023 h -10 z m 0,-74.81 h 10 v 37.3984 h -10 z"
         style="fill:#f36241;fill-opacity:1;fill-rule:nonzero;stroke:none"
         transform="matrix(0.13333333,0,0,-0.13333333,0,668.30667)" />
      <path
         id="path204"
         d="m 5262.61,1398 v -25 h 25 v 10 h -15 v 15 h -10"
         style="fill:#f36241;fill-opacity:1;fill-rule:nonzero;stroke:none"
         transform="matrix(0.13333333,0,0,-0.13333333,0,668.30667)" />
      <path
         id="path205"
         d="m 5321.56,1373 h 33.9609 v 10 H 5321.56 Z m 67.92,0 h 33.9609 v 10 H 5389.48 Z"
         style="fill:#f36241;fill-opacity:1;fill-rule:nonzero;stroke:none"
         transform="matrix(0.13333333,0,0,-0.13333333,0,668.30667)" />
      <path
         id="path206"
         d="m 5457.39,1373 h 20 v 10 h -20 z"
         style="fill:#f36241;fill-opacity:1;fill-rule:nonzero;stroke:none"
         transform="matrix(0.13333333,0,0,-0.13333333,0,668.30667)" />
      <path
         id="path207"
         d="m 5773.33,1349.42 h -264.3 v 47.23 h 264.3 v -47.23"
         style="fill:#ffffff;fill-opacity:1;fill-rule:nonzero;stroke:none"
         transform="matrix(0.13333333,0,0,-0.13333333,0,668.30667)" />
      <path
         id="path208"
         d="m 5691.84,1262.03 h -182.81 v 47.23 h 182.81 v -47.23"
         style="fill:#ffffff;fill-opacity:1;fill-rule:nonzero;stroke:none"
         transform="matrix(0.13333333,0,0,-0.13333333,0,668.30667)" />
      <path
         id="path209"
         d="m 5740.42,1174.63 h -231.39 v 47.24 h 231.39 v -47.24"
         style="fill:#ffffff;fill-opacity:1;fill-rule:nonzero;stroke:none"
         transform="matrix(0.13333333,0,0,-0.13333333,0,668.30667)" />
      <path
         id="path210"
         d="m 5842.3,1174.63 h -54.01 v 47.24 h 54.01 v -47.24"
         style="fill:#f78f45;fill-opacity:1;fill-rule:nonzero;stroke:none"
         transform="matrix(0.13333333,0,0,-0.13333333,0,668.30667)" />
      <path
         id="path211"
         d="m 6090.57,1174.63 h -198.74 v 47.24 h 198.74 v -47.24"
         style="fill:#f78f45;fill-opacity:1;fill-rule:nonzero;stroke:none"
         transform="matrix(0.13333333,0,0,-0.13333333,0,668.30667)" />
      <path
         id="path212"
         d="m 6090.57,1262.03 h -340.15 v 47.23 h 340.15 v -47.23"
         style="fill:#f78f45;fill-opacity:1;fill-rule:nonzero;stroke:none"
         transform="matrix(0.13333333,0,0,-0.13333333,0,668.30667)" />
      <path
         id="path213"
         d="m 6090.57,1349.42 h -264.3 v 47.23 h 264.3 v -47.23"
         style="fill:#f78f45;fill-opacity:1;fill-rule:nonzero;stroke:none"
         transform="matrix(0.13333333,0,0,-0.13333333,0,668.30667)" />
      <path
         id="path214"
         d="m 6996.92,1789.94 h -174.14 v 83.1 h 174.14 v -83.1"
         style="fill:#d82b62;fill-opacity:1;fill-rule:nonzero;stroke:none"
         transform="matrix(0.13333333,0,0,-0.13333333,0,668.30667)" />
      <path
         id="path215"
         d="m 6996.92,1644.74 h -174.14 v 83.11 h 174.14 v -83.11"
         style="fill:#d82b62;fill-opacity:1;fill-rule:nonzero;stroke:none"
         transform="matrix(0.13333333,0,0,-0.13333333,0,668.30667)" />
      <path
         id="path216"
         d="m 6996.92,1499.55 h -174.14 v 83.1 h 174.14 v -83.1"
         style="fill:#d82b62;fill-opacity:1;fill-rule:nonzero;stroke:none"
         transform="matrix(0.13333333,0,0,-0.13333333,0,668.30667)" />
      <path
         id="path217"
         d="m 6996.92,1354.36 h -174.14 v 83.11 h 174.14 v -83.11"
         style="fill:#d82b62;fill-opacity:1;fill-rule:nonzero;stroke:none"
         transform="matrix(0.13333333,0,0,-0.13333333,0,668.30667)" />
      <path
         id="path218"
         d="m 6996.92,1209.16 h -174.14 v 83.11 h 174.14 v -83.11"
         style="fill:#ffffff;fill-opacity:1;fill-rule:nonzero;stroke:none"
         transform="matrix(0.13333333,0,0,-0.13333333,0,668.30667)" />
      <path
         id="path219"
         d="m 6996.92,1063.97 h -174.14 v 83.1 h 174.14 v -83.1"
         style="fill:#ffffff;fill-opacity:1;fill-rule:nonzero;stroke:none"
         transform="matrix(0.13333333,0,0,-0.13333333,0,668.30667)" />
      <path
         id="path220"
         d="m 6996.92,918.781 h -174.14 v 83.109 h 174.14 v -83.109"
         style="fill:#ffffff;fill-opacity:1;fill-rule:nonzero;stroke:none"
         transform="matrix(0.13333333,0,0,-0.13333333,0,668.30667)" />
    </g>
  </g>
</svg>
